<?xml version="1.0" encoding="UTF-8" standalone="no"?><!DOCTYPE svg PUBLIC "-//W3C//DTD SVG 1.1//EN" "http://www.w3.org/Graphics/SVG/1.1/DTD/svg11.dtd">
<svg 
  width="100%" 
  height="100%" 
  viewBox="0 0 168 168" 
  version="1.1" 
  xmlns="http://www.w3.org/2000/svg" 
  xmlns:xlink="http://www.w3.org/1999/xlink" xml:space="preserve" xmlns:serif="http://www.serif.com/" style="fill-rule:evenodd;clip-rule:evenodd;stroke-linejoin:round;stroke-miterlimit:2;">
  <g>
    <g id="center_bullseye">
      <path id="path1" d="M105.506,118.742l-0.144,-0c-0.412,-0.359 -0.809,-0.74 -1.198,-1.143c-2.287,-2.6 -4.208,-5.434 -5.76,-8.504c-2.423,-4.795 -5.134,-9.422 -8.125,-13.881c-1.327,-1.972 -2.917,-3.732 -4.769,-5.278c-1.598,-1.299 -3.438,-2.016 -5.519,-2.15c-1.163,-0.023 -2.33,-0.034 -3.497,-0.034l0,19.36c0,1.748 0.277,3.451 0.825,5.11c0.595,1.635 1.669,2.868 3.22,3.697c1.42,0.65 2.906,1.008 4.458,1.076l-0,1.747c-7.69,-0.326 -15.383,-0.415 -23.073,-0.266c6.356,4.056 13.905,6.406 22.003,6.406c7.919,-0.001 15.313,-2.248 21.579,-6.14Z"/>
      <path id="path2" d="M58.124,115.734c0.257,-0.148 0.506,-0.311 0.747,-0.488c1.167,-0.964 1.945,-2.173 2.334,-3.63c0.455,-1.793 0.661,-3.619 0.614,-5.479l0,-40.402c0,-1.703 -0.272,-3.361 -0.82,-4.974c-0.619,-1.748 -1.774,-3.026 -3.462,-3.832c-1.159,-0.481 -2.357,-0.78 -3.602,-0.898c-6.802,7.313 -10.964,17.117 -10.964,27.894c-0,12.84 5.908,24.299 15.153,31.809Z"/>
      <path id="path3" d="M55.709,54.24l34.776,-0c2.26,-0 4.488,0.247 6.682,0.739c4.298,0.942 7.806,3.104 10.525,6.488c4.208,6.588 3.819,12.896 -1.163,18.923c-2.629,2.421 -5.725,3.989 -9.292,4.706c1.739,1.457 3.314,3.059 4.73,4.807c2.971,3.898 5.67,7.965 8.094,12.201c1.649,2.772 3.415,5.463 5.301,8.074c5.943,-7.108 9.518,-16.263 9.518,-26.252c-0,-22.62 -18.336,-40.956 -40.957,-40.956c-10.933,-0 -20.867,4.286 -28.214,11.27Z"/>
      <path id="path4" d="M76.494,58.307l0,25.377l4.528,-0.034c2.376,0.023 4.694,-0.358 6.958,-1.142c3.018,-1.098 5.017,-3.149 6.001,-6.151c0.961,-3.294 1.051,-6.611 0.273,-9.95c-0.685,-2.801 -2.307,-4.907 -4.866,-6.319c-2.128,-1.053 -4.38,-1.624 -6.756,-1.714c-2.058,-0.067 -4.103,-0.089 -6.138,-0.067Z"/>
    </g>
    <g id="inner_ring">
      <path id="path5" d="M148.006,95.267l-13.78,-0c-4.337,19.317 -19.517,34.533 -38.813,38.925l-0,13.789c26.775,-4.77 47.883,-25.917 52.593,-52.714Z"/>
      <path id="path6" d="M134.354,73.173l13.753,0c-4.5,-27.075 -25.721,-48.499 -52.694,-53.304l-0,13.79c19.494,4.436 34.783,19.918 38.941,39.514Z" style="fill:#f8a500;"/>
      <path id="path7" d="M33.625,95.267l-13.781,-0c4.761,27.091 26.281,48.408 53.477,52.866l-0,-13.748c-19.716,-4.122 -35.294,-19.507 -39.696,-39.118Z" style="fill:#f8a500;"/>
      <path id="path8" d="M19.743,73.173l13.753,0c4.22,-19.891 19.914,-35.543 39.825,-39.707l-0,-13.748c-27.39,4.49 -49.027,26.085 -53.578,53.455Z"/></g><g id="outter_ring">
      <path id="path9" d="M154.961,72.966l12.889,0c-4.908,-37.974 -34.989,-68.056 -72.966,-72.966l-0,12.891c30.917,4.731 55.343,29.16 60.077,60.075Z"/>
      <path id="path10" d="M167.85,94.885l-12.889,-0c-4.734,30.914 -29.16,55.344 -60.077,60.075l-0,12.891c37.977,-4.91 68.058,-34.992 72.966,-72.966Z" style="fill:#f8a500;"/>
      <path id="path11" d="M72.967,167.851l-0,-12.891c-30.914,-4.731 -55.344,-29.161 -60.077,-60.075l-12.89,-0c4.909,37.974 34.994,68.056 72.967,72.966Z"/>
      <path id="path12" d="M-0,72.966l12.89,0c4.733,-30.915 29.163,-55.344 60.077,-60.075l-0,-12.891c-37.973,4.91 -68.058,34.992 -72.967,72.966Z" style="fill:#f8a500;"/>
    </g>
  </g>
</svg>