<!-- <svg version="1.1" id="Layer_1" xmlns="http://www.w3.org/2000/svg" xmlns:xlink="http://www.w3.org/1999/xlink" x="0px" y="0px"	width="15984px" height="696.24px" viewBox="0 0 15984 696.24" enable-background="new 0 0 15984 696.24" xml:space="preserve"> -->
<svg viewBox="0 0 627 894" fill="none">
<g>
	<path fill-rule="evenodd" clip-rule="evenodd" d="M7399.257,438.529h-0.366c-1.058-0.922-2.086-1.901-3.085-2.938
		c-5.876-6.683-10.813-13.971-14.809-21.863c-6.229-12.329-13.193-24.226-20.891-35.69c-3.408-5.07-7.492-9.593-12.252-13.568
		c-4.113-3.341-8.844-5.185-14.191-5.53c-2.997-0.058-5.994-0.087-8.991-0.087v47.271v2.506c0,4.493,0.705,8.872,2.115,13.136
		c1.528,4.205,4.29,7.374,8.286,9.506c3.644,1.671,7.463,2.593,11.459,2.766v4.493c-19.775-0.839-39.55-1.067-59.324-0.684
		c16.339,10.427,35.748,16.469,56.567,16.469C7364.136,454.314,7383.146,448.536,7399.257,438.529L7399.257,438.529z"/>
	<path fill-rule="evenodd" clip-rule="evenodd" d="M7277.439,430.796c0.658-0.379,1.3-0.798,1.925-1.254
		c2.997-2.478,4.995-5.588,5.994-9.333c1.175-4.609,1.704-9.305,1.586-14.086V305.1v-2.852c0-4.379-0.705-8.642-2.116-12.79
		c-1.586-4.494-4.554-7.778-8.902-9.852c-2.976-1.236-6.06-2.006-9.252-2.308c-17.496,18.801-28.198,44.009-28.198,71.717
		C7238.477,382.026,7253.667,411.489,7277.439,430.796L7277.439,430.796z"/>
	<path fill-rule="evenodd" clip-rule="evenodd" d="M7271.23,272.693h89.405c5.817,0,11.547,0.634,17.188,1.901
		c11.048,2.42,20.068,7.979,27.061,16.679c10.813,16.938,9.813,33.156-2.997,48.654c-6.758,6.222-14.721,10.255-23.888,12.098
		c4.466,3.745,8.521,7.864,12.164,12.358c7.639,10.024,14.574,20.48,20.803,31.37c4.244,7.126,8.788,14.046,13.632,20.76
		c15.279-18.275,24.475-41.813,24.475-67.497c0-58.155-47.144-105.299-105.299-105.299
		C7315.659,243.717,7290.116,254.736,7271.23,272.693L7271.23,272.693z"/>
	<path fill-rule="evenodd" clip-rule="evenodd" d="M7324.672,283.149v65.245l11.635-0.086c6.111,0.058,12.076-0.921,17.894-2.938
		c7.757-2.823,12.899-8.095,15.426-15.814c2.468-8.469,2.703-16.996,0.705-25.58c-1.763-7.202-5.935-12.617-12.517-16.247
		c-5.465-2.708-11.253-4.177-17.365-4.407C7335.161,283.149,7329.902,283.092,7324.672,283.149L7324.672,283.149z"/>
	<path fill-rule="evenodd" clip-rule="evenodd" d="M7508.533,378.175h-35.434c-11.15,49.664-50.176,88.787-99.786,100.079v35.452
		C7442.155,501.441,7496.423,447.07,7508.533,378.175L7508.533,378.175z"/>
	<path fill-rule="evenodd" clip-rule="evenodd" fill="#F8A500" d="M7473.43,321.371h35.362
		c-11.576-69.612-66.133-124.692-135.479-137.046v35.453C7423.427,231.184,7462.74,270.989,7473.43,321.371L7473.43,321.371z"/>
	<path fill-rule="evenodd" clip-rule="evenodd" fill="#F8A500" d="M7214.452,378.175h-35.434
		c12.243,69.651,67.574,124.459,137.492,135.92v-35.346C7265.822,468.15,7225.771,428.595,7214.452,378.175L7214.452,378.175z"/>
	<path fill-rule="evenodd" clip-rule="evenodd" d="M7178.759,321.371h35.362c10.851-51.141,51.194-91.384,102.389-102.089v-35.345
		C7246.086,195.48,7190.46,251.001,7178.759,321.371L7178.759,321.371z"/>
	<path fill-rule="evenodd" clip-rule="evenodd" d="M7526.407,320.839h33.144c-12.624-97.633-89.965-174.975-187.599-187.599v33.144
		C7451.436,178.546,7514.245,241.356,7526.407,320.839L7526.407,320.839z"/>
	<path fill-rule="evenodd" clip-rule="evenodd" fill="#F8A500" d="M7559.551,377.192h-33.144
		c-12.162,79.483-74.972,142.293-154.455,154.455v33.144C7469.586,552.167,7546.927,474.826,7559.551,377.192L7559.551,377.192z"/>
	<path fill-rule="evenodd" clip-rule="evenodd" d="M7315.599,564.791v-33.144c-79.483-12.162-142.293-74.972-154.455-154.455H7128
		C7140.624,474.826,7217.965,552.167,7315.599,564.791L7315.599,564.791z"/>
	<path fill-rule="evenodd" clip-rule="evenodd" fill="#F8A500" d="M7128,320.839h33.144
		c12.162-79.483,74.972-142.293,154.455-154.455V133.24C7217.965,145.864,7140.624,223.206,7128,320.839L7128,320.839z"/>
		c0-2.723-0.54-4.609-1.619-5.659c-1.078-1.05-3.143-1.854-6.191-2.411v-1.722h29.287c7.672,0,13.572,1.296,17.699,3.887
		c4.128,2.592,6.191,6.232,6.191,10.924c0,3.379-1.073,6.281-3.22,8.709s-5.224,4.198-9.231,5.313v0.197
		c1.439,0.328,2.998,1.47,4.676,3.424c1.679,1.955,4.113,5.784,7.305,11.489c3.123,5.541,5.395,9.049,6.816,10.525
		c1.422,1.476,3.365,2.395,5.831,2.755v1.723h-17.751c-2.325-2.635-5.31-7.41-8.953-14.325c-2.509-4.752-4.371-7.915-5.588-9.489
		c-1.215-1.575-2.482-2.682-3.802-3.321c-1.318-0.64-3.947-0.96-7.887-0.96v18.107c0,2.591,0.6,4.519,1.798,5.781
		c1.199,1.263,3.237,2.091,6.115,2.484v1.723H8083.053L8083.053,478.49z M8108.641,422.89h-4.214v24.159
		c1.062,0.065,2.056,0.099,2.98,0.099c4.897,0,8.469-1.009,10.712-3.026c2.244-2.018,3.365-5.207,3.365-9.57
		C8121.484,426.777,8117.203,422.89,8108.641,422.89L8108.641,422.89z"/>


</g>
</svg>
