<?xml version="1.0" encoding="UTF-8" standalone="no"?><!DOCTYPE svg PUBLIC "-//W3C//DTD SVG 1.1//EN" "http://www.w3.org/Graphics/SVG/1.1/DTD/svg11.dtd"><svg width="100%" height="100%" viewBox="0 0 607 121" version="1.1" xmlns="http://www.w3.org/2000/svg" xmlns:xlink="http://www.w3.org/1999/xlink" xml:space="preserve" xmlns:serif="http://www.serif.com/" style="fill-rule:evenodd;clip-rule:evenodd;stroke-linejoin:round;stroke-miterlimit:2;"><g id="g31"><path id="path13" d="M0,73.328l0,-2.088c6.167,-0.477 9.25,-3.52 9.25,-9.129l0,-48.387c0,-3.302 -0.638,-5.588 -1.917,-6.862c-1.278,-1.273 -3.722,-2.247 -7.333,-2.923l0,-2.088l34.688,-0c9.088,-0 16.077,1.571 20.966,4.713c4.889,3.142 7.333,7.558 7.333,13.245c-0,4.097 -1.271,7.617 -3.814,10.561c-2.542,2.944 -6.187,5.091 -10.933,6.443l-0,0.239c1.704,0.399 3.549,1.783 5.538,4.152c1.988,2.37 4.872,7.014 8.651,13.931c3.699,6.719 6.39,10.974 8.074,12.763c1.684,1.79 3.986,2.904 6.907,3.342l0,2.087l-21.025,0c-2.754,-3.194 -6.289,-8.985 -10.605,-17.37c-2.972,-5.762 -5.178,-9.598 -6.618,-11.507c-1.441,-1.909 -2.941,-3.251 -4.503,-4.027c-1.562,-0.776 -4.676,-1.163 -9.342,-1.163l0,21.956c0,3.142 0.71,5.479 2.13,7.01c1.42,1.531 3.834,2.536 7.242,3.014l-0,2.087l-34.689,0l0,0.001Zm30.306,-67.42l-4.99,0l0,29.295c1.258,0.079 2.434,0.119 3.53,0.119c5.801,-0 10.031,-1.223 12.688,-3.669c2.658,-2.446 3.987,-6.314 3.987,-11.605c-0,-9.427 -5.072,-14.14 -15.215,-14.14Z"/><path id="path14" d="M120.786,1.851l-0,2.088c-3.587,0.796 -6.005,1.86 -7.255,3.192c-1.249,1.333 -1.874,4.087 -1.874,8.264l0,45.821c0,3.222 0.585,5.469 1.753,6.742c1.169,1.273 3.628,2.367 7.376,3.282l0,2.087l-34.445,0l0,-2.087c2.597,-0.637 4.534,-1.333 5.812,-2.089c1.278,-0.755 2.171,-1.71 2.678,-2.864c0.508,-1.153 0.761,-3.36 0.761,-6.622l-0,-45.702c-0,-3.222 -0.599,-5.479 -1.795,-6.772c-1.197,-1.293 -3.682,-2.377 -7.456,-3.252l0,-2.088l34.445,0Z"/><path id="path15" d="M183.452,15.856l-13.566,12.565l29.173,35.216c2.436,2.945 4.341,4.898 5.715,5.86c1.374,0.962 3.071,1.543 5.092,1.743l-0,2.088l-33.289,-0l0,-2.088c3.368,-0.756 5.051,-1.889 5.051,-3.401c0,-0.835 -0.507,-1.849 -1.521,-3.042l-22.821,-27.744l-0,23.329c-0,3.46 0.5,5.837 1.501,7.129c1,1.293 3.543,2.536 7.627,3.73l-0,2.087l-34.445,0l0,-2.087c3.854,-0.876 6.36,-1.989 7.516,-3.342c1.156,-1.352 1.734,-3.698 1.734,-7.04l-0,-46.895c-0,-3.262 -0.599,-5.529 -1.795,-6.802c-1.197,-1.273 -3.682,-2.347 -7.455,-3.222l-0,-2.088l34.445,-0l-0,2.088c-3.554,0.796 -5.963,1.88 -7.229,3.252c-1.266,1.372 -1.9,3.331 -1.9,5.877l0,21.181l22.456,-21.181c1.502,-1.392 2.252,-2.764 2.252,-4.117c0,-2.307 -2.252,-3.977 -6.755,-5.012l-0,-2.088l30.306,-0l0,2.088c-3.408,0 -6.766,0.885 -10.073,2.654c-3.308,1.769 -7.314,4.856 -12.019,9.262Z"/><path id="path16" d="M292.718,37.649c0,10.938 -3.732,19.927 -11.197,26.968c-7.465,7.04 -16.999,10.56 -28.603,10.56c-11.563,-0 -21.057,-3.52 -28.481,-10.56c-7.424,-7.041 -11.136,-16.03 -11.136,-26.968c-0,-10.938 3.722,-19.947 11.167,-27.028c7.445,-7.08 16.929,-10.62 28.451,-10.62c11.603,0 21.138,3.54 28.602,10.62c7.465,7.081 11.197,16.09 11.197,27.028Zm-17.465,0.477c-0,-11.097 -1.897,-19.549 -5.691,-25.357c-3.793,-5.807 -9.341,-8.711 -16.644,-8.711c-7.222,-0 -12.719,2.903 -16.493,8.711c-3.773,5.808 -5.659,14.3 -5.659,25.476c-0,10.382 1.907,18.456 5.72,24.224c3.814,5.768 9.291,8.651 16.432,8.651c7.018,-0 12.496,-2.863 16.431,-8.592c3.935,-5.727 5.904,-13.861 5.904,-24.402Z"/><path id="path17" d="M347.9,0l0,18.855l-2.13,-0c-1.417,-4.177 -3.856,-7.687 -7.318,-10.531c-3.462,-2.844 -7.035,-4.266 -10.72,-4.266c-3.32,-0 -6.144,0.935 -8.472,2.804c-2.328,1.869 -3.492,4.156 -3.492,6.861c-0,1.313 0.304,2.616 0.912,3.908c0.609,1.293 1.492,2.496 2.647,3.61c1.157,1.114 4.883,3.593 11.179,7.438c6.419,3.845 10.559,6.525 12.422,8.038c1.862,1.513 3.644,3.443 5.345,5.792c2.591,3.623 3.887,7.585 3.887,11.885c-0,6.37 -2.283,11.426 -6.847,15.169c-4.564,3.743 -10.092,5.613 -16.583,5.613c-3.489,0 -7.648,-0.616 -12.475,-1.849c-2.557,-0.636 -4.342,-0.955 -5.356,-0.955c-1.704,0 -2.941,0.776 -3.712,2.327l-2.13,0l-0,-21.538l2.13,-0c1.095,5.568 3.367,9.954 6.816,13.155c3.448,3.202 7.688,4.803 12.719,4.803c3.895,0 7.11,-0.954 9.645,-2.863c2.536,-1.91 3.804,-4.336 3.804,-7.279c0,-2.387 -0.811,-4.645 -2.434,-6.773c-1.623,-2.128 -5.969,-5.252 -13.038,-9.374c-6.5,-3.805 -10.801,-6.743 -12.905,-8.813c-2.103,-2.071 -3.692,-4.39 -4.764,-6.958c-1.072,-2.568 -1.608,-5.286 -1.608,-8.153c-0,-6.133 2.137,-11.15 6.411,-15.053c4.273,-3.902 9.773,-5.853 16.497,-5.853c2.066,0 4.557,0.338 7.474,1.014c2.917,0.637 4.982,0.955 6.198,0.955c1.175,0 2.431,-0.656 3.767,-1.969l2.131,0Z"/><path id="path18" d="M425.417,59.665l0,-21.061l-34.993,-0l0,22.612c0,3.262 0.568,5.519 1.705,6.772c1.135,1.253 3.549,2.337 7.241,3.252l0,2.087l-34.262,0l0,-2.087c2.597,-0.637 4.534,-1.333 5.812,-2.089c1.278,-0.755 2.17,-1.72 2.678,-2.893c0.507,-1.174 0.761,-3.372 0.761,-6.593l-0,-45.702c-0,-3.222 -0.599,-5.479 -1.796,-6.772c-1.197,-1.293 -3.681,-2.377 -7.455,-3.252l0,-2.088l34.262,0l0,2.088c-3.529,0.796 -5.903,1.86 -7.12,3.192c-1.217,1.333 -1.825,3.431 -1.825,6.295l-0,20.047l34.993,-0l-0,-19.51c-0,-3.222 -0.592,-5.479 -1.777,-6.772c-1.185,-1.293 -3.635,-2.377 -7.352,-3.252l0,-2.088l34.445,0l0,2.088c-3.895,0.995 -6.41,2.118 -7.546,3.371c-1.136,1.253 -1.704,3.987 -1.704,8.204l-0,45.702c-0,3.182 0.588,5.419 1.764,6.712c1.177,1.293 3.672,2.397 7.486,3.312l-0,2.087l-34.445,0l-0,-2.087c3.553,-0.796 5.963,-1.88 7.229,-3.252c1.266,-1.372 1.899,-4.147 1.899,-8.323Z"/><path id="path19" d="M510.662,26.492l2.374,0l-0,22.135l-2.374,0c-0.852,-6.085 -4.219,-9.129 -10.102,-9.129l-12.841,0l0,21.002c0,3.221 0.749,5.489 2.247,6.801c1.498,1.313 4.069,1.969 7.712,1.969l4.252,0c7.126,0 12.228,-4.435 15.304,-13.305l2.13,0l-1.338,17.362l-55.502,-0l0,-2.088c3.667,-0.756 6.106,-1.84 7.315,-3.252c1.209,-1.412 1.813,-4.146 1.813,-8.203l0,-45.94c0,-3.342 -0.624,-5.659 -1.874,-6.951c-1.249,-1.293 -3.667,-2.278 -7.254,-2.954l0,-2.088l54.65,0l-0,15.871l-2.13,-0c-1.217,-4.654 -2.728,-7.787 -4.534,-9.397c-1.805,-1.611 -4.696,-2.417 -8.672,-2.417l-14.119,0l-0,29.534l12.841,-0c2.92,-0 5.152,-0.681 6.694,-2.042c1.542,-1.362 2.678,-3.665 3.408,-6.908Z"/><path id="path20" d="M570.53,73.328l0,-2.088c2.991,-0.557 5.103,-1.243 6.336,-2.059c1.233,-0.815 1.85,-1.959 1.85,-3.43c-0,-1.194 -0.469,-3.023 -1.405,-5.49l-4.215,-10.978l-26.02,0l-3.601,9.483c-0.92,2.425 -1.38,4.374 -1.38,5.846c0,3.145 2.439,5.354 7.317,6.628l0,2.088l-23.551,-0l-0,-2.088c2.84,-0.477 5.315,-1.929 7.424,-4.355c2.11,-2.427 4.201,-6.385 6.273,-11.873l20.966,-55.01l9.958,-0l22.171,57.215c2.031,5.091 4.022,8.642 5.974,10.651c1.952,2.009 4.494,3.133 7.625,3.372l0,2.088l-35.722,-0Zm-21.116,-29.176l21.719,0l-11.101,-28.996l-10.618,28.996Z"/><path id="path21" d="M27.006,101.18l-0.813,-0c-0.671,-2.841 -1.884,-5.046 -3.637,-6.615c-1.754,-1.569 -3.884,-2.354 -6.391,-2.354c-2.737,-0 -4.912,1.106 -6.526,3.319c-1.614,2.213 -2.422,5.187 -2.422,8.921c0,4.159 0.943,7.377 2.827,9.652c1.885,2.276 4.482,3.414 7.792,3.414c1.786,-0 3.425,-0.353 4.917,-1.06c1.491,-0.706 3.007,-1.843 4.547,-3.413l0,1.483c-2.917,3.829 -6.891,5.744 -11.922,5.744c-4.506,-0 -8.169,-1.338 -10.987,-4.014c-2.819,-2.676 -4.228,-6.148 -4.228,-10.416c0,-4.332 1.52,-7.953 4.56,-10.864c3.04,-2.911 6.821,-4.367 11.344,-4.367c1.852,0 3.941,0.393 6.268,1.177c0.999,0.346 1.68,0.518 2.04,0.518c0.721,0 1.328,-0.487 1.819,-1.459l0.812,-0l-0,10.334Z"/><path id="path22" d="M90.08,105.464c-0,4.316 -1.508,7.862 -4.523,10.64c-3.015,2.778 -6.867,4.166 -11.553,4.166c-4.67,0 -8.505,-1.388 -11.504,-4.166c-2.998,-2.778 -4.498,-6.325 -4.498,-10.64c0,-4.316 1.504,-7.87 4.511,-10.664c3.007,-2.793 6.837,-4.19 11.491,-4.19c4.687,-0 8.538,1.397 11.553,4.19c3.015,2.794 4.523,6.348 4.523,10.664Zm-7.055,0.188c-0,-4.378 -0.766,-7.713 -2.298,-10.004c-1.533,-2.292 -3.774,-3.437 -6.723,-3.437c-2.917,-0 -5.137,1.145 -6.661,3.437c-1.524,2.291 -2.286,5.642 -2.286,10.052c-0,4.096 0.77,7.281 2.311,9.557c1.54,2.275 3.752,3.414 6.636,3.414c2.835,-0 5.048,-1.13 6.637,-3.391c1.589,-2.26 2.384,-5.469 2.384,-9.628Z"/><path id="path23" d="M142.142,92.164l0,-0.824l9.931,-0l-0,0.824c-2.852,0.157 -4.277,1.695 -4.277,4.614l-0,23.093l-0.964,-0l-21.183,-22.86l-0,17.238c-0,1.506 0.287,2.56 0.86,3.163c0.573,0.604 1.729,1.039 3.466,1.305l0,0.825l-10.152,-0l0,-0.825c1.376,-0.203 2.364,-0.654 2.962,-1.353c0.598,-0.698 0.897,-1.784 0.897,-3.26l0,-19.138c-1.147,-1.13 -1.938,-1.852 -2.372,-2.165c-0.434,-0.314 -0.946,-0.526 -1.536,-0.636l-0,-0.824l8.847,-0l17.208,18.903l0,-12.688c0,-1.868 -0.256,-3.159 -0.769,-3.873c-0.512,-0.715 -1.485,-1.221 -2.918,-1.519Z"/><path id="path24" d="M200.793,118.717l-0,0.824l-13.815,0l0,-0.824c1.449,-0.267 2.426,-0.675 2.931,-1.224c0.504,-0.549 0.757,-1.554 0.757,-3.013l0,-21.539l-2.942,-0c-1.781,-0 -3.191,0.369 -4.229,1.106c-1.038,0.738 -1.81,1.907 -2.317,3.508l-0.86,0l0.295,-6.804l0.909,0c0.639,0.393 1.606,0.589 2.901,0.589l19.001,-0c1.327,-0 2.294,-0.196 2.9,-0.589l0.91,0l0.294,6.804l-0.86,0c-0.507,-1.601 -1.279,-2.77 -2.317,-3.508c-1.038,-0.737 -2.447,-1.106 -4.229,-1.106l-2.942,-0l-0,21.586c-0,1.381 0.254,2.366 0.762,2.954c0.508,0.589 1.458,1.001 2.851,1.236Z"/><path id="path25" d="M236.46,119.541l0,-0.824c2.492,-0.189 3.737,-1.389 3.737,-3.602l0,-19.09c0,-1.303 -0.258,-2.205 -0.774,-2.708c-0.516,-0.502 -1.504,-0.887 -2.962,-1.153l-0,-0.824l14.011,-0c3.671,-0 6.493,0.62 8.468,1.86c1.975,1.24 2.962,2.981 2.962,5.226c-0,1.616 -0.514,3.005 -1.541,4.166c-1.027,1.162 -2.499,2.009 -4.416,2.542l-0,0.094c0.688,0.157 1.434,0.704 2.237,1.639c0.803,0.935 1.968,2.767 3.495,5.496c1.494,2.651 2.581,4.329 3.261,5.035c0.68,0.707 1.61,1.146 2.789,1.319l0,0.824l-8.492,-0c-1.112,-1.261 -2.54,-3.545 -4.283,-6.854c-1.201,-2.273 -2.091,-3.786 -2.674,-4.539c-0.581,-0.754 -1.187,-1.283 -1.819,-1.589c-0.63,-0.306 -1.888,-0.459 -3.773,-0.459l0,8.662c0,1.24 0.287,2.162 0.86,2.766c0.574,0.604 1.549,1 2.926,1.189l-0,0.824l-14.012,-0Zm12.242,-26.6l-2.016,-0l0,11.558c0.508,0.031 0.984,0.047 1.426,0.047c2.343,0 4.052,-0.483 5.125,-1.448c1.073,-0.965 1.61,-2.491 1.61,-4.578c-0,-3.72 -2.049,-5.579 -6.145,-5.579Z"/><path id="path26" d="M313.743,119.541l0,-0.824c1.208,-0.22 2.061,-0.49 2.559,-0.812c0.498,-0.322 0.748,-0.773 0.748,-1.354c-0,-0.471 -0.19,-1.193 -0.568,-2.165l-1.702,-4.332l-10.51,0l-1.454,3.741c-0.372,0.957 -0.558,1.726 -0.558,2.307c0,1.241 0.985,2.112 2.956,2.615l-0,0.824l-9.513,-0l0,-0.824c1.147,-0.189 2.146,-0.762 2.999,-1.719c0.852,-0.957 1.697,-2.519 2.534,-4.684l8.468,-21.704l4.022,-0l8.955,22.574c0.82,2.009 1.625,3.41 2.413,4.202c0.788,0.793 1.816,1.237 3.08,1.331l0,0.824l-14.429,-0Zm-8.529,-11.511l8.773,0l-4.484,-11.44l-4.289,11.44Z"/><path id="path27" d="M383.549,101.18l-0.811,-0c-0.672,-2.841 -1.885,-5.046 -3.638,-6.615c-1.754,-1.569 -3.884,-2.354 -6.391,-2.354c-2.737,-0 -4.912,1.106 -6.527,3.319c-1.613,2.213 -2.421,5.187 -2.421,8.921c0,4.159 0.943,7.377 2.827,9.652c1.884,2.276 4.482,3.414 7.792,3.414c1.786,-0 3.425,-0.353 4.916,-1.06c1.491,-0.706 3.007,-1.843 4.547,-3.413l0,1.483c-2.917,3.829 -6.89,5.744 -11.921,5.744c-4.507,-0 -8.169,-1.338 -10.988,-4.014c-2.819,-2.676 -4.228,-6.148 -4.228,-10.416c-0,-4.332 1.52,-7.953 4.56,-10.864c3.04,-2.911 6.821,-4.367 11.344,-4.367c1.851,0 3.941,0.393 6.268,1.177c1,0.346 1.68,0.518 2.04,0.518c0.722,0 1.327,-0.487 1.82,-1.459l0.811,-0l-0,10.334Z"/><path id="path28" d="M433.522,118.717l-0,0.824l-13.814,0l-0,-0.824c1.448,-0.267 2.425,-0.675 2.93,-1.224c0.505,-0.549 0.757,-1.554 0.757,-3.013l-0,-21.539l-2.942,-0c-1.782,-0 -3.192,0.369 -4.229,1.106c-1.038,0.738 -1.811,1.907 -2.317,3.508l-0.861,0l0.295,-6.804l0.909,0c0.639,0.393 1.606,0.589 2.901,0.589l19,-0c1.328,-0 2.295,-0.196 2.901,-0.589l0.909,0l0.295,6.804l-0.861,0c-0.506,-1.601 -1.278,-2.77 -2.316,-3.508c-1.038,-0.737 -2.448,-1.106 -4.23,-1.106l-2.942,-0l0,21.586c0,1.381 0.255,2.366 0.763,2.954c0.509,0.589 1.459,1.001 2.852,1.236Z"/><path id="path29" d="M483.963,91.34l-0,0.824c-1.449,0.314 -2.425,0.734 -2.93,1.259c-0.505,0.526 -0.758,1.613 -0.758,3.26l0,18.079c0,1.272 0.236,2.158 0.709,2.66c0.471,0.503 1.464,0.934 2.979,1.295l-0,0.824l-13.913,0l0,-0.824c1.048,-0.251 1.831,-0.526 2.347,-0.824c0.517,-0.298 0.877,-0.674 1.082,-1.129c0.205,-0.456 0.308,-1.327 0.308,-2.614l-0,-18.031c-0,-1.271 -0.242,-2.162 -0.726,-2.672c-0.483,-0.51 -1.487,-0.938 -3.011,-1.283l0,-0.824l13.913,-0Z"/><path id="path30" d="M536.222,92.164l-0,-0.824l9.931,-0l-0,0.824c-2.852,0.157 -4.277,1.695 -4.277,4.614l-0,23.093l-0.964,-0l-21.183,-22.86l-0,17.238c-0,1.506 0.286,2.56 0.86,3.163c0.574,0.604 1.729,1.039 3.466,1.305l-0,0.825l-10.152,-0l0,-0.825c1.377,-0.203 2.364,-0.654 2.962,-1.353c0.598,-0.698 0.897,-1.784 0.897,-3.26l0,-19.138c-1.147,-1.13 -1.938,-1.852 -2.372,-2.165c-0.434,-0.314 -0.947,-0.526 -1.537,-0.636l0,-0.824l8.848,-0l17.208,18.903l0,-12.688c0,-1.868 -0.256,-3.159 -0.769,-3.873c-0.513,-0.715 -1.486,-1.221 -2.918,-1.519Z"/><path id="path31" d="M603.377,91.339l0,7.91l-0.909,0c-0.868,-2.15 -2.216,-3.86 -4.043,-5.132c-1.827,-1.271 -3.847,-1.906 -6.06,-1.906c-2.982,-0 -5.289,1.216 -6.919,3.649c-1.63,2.432 -2.446,5.861 -2.446,10.287c0,4.079 0.811,7.187 2.434,9.321c1.622,2.135 3.966,3.202 7.03,3.202c2.949,-0 4.424,-0.997 4.424,-2.99l0,-4.191c0,-1.929 -1.007,-3.083 -3.023,-3.459l0,-0.825l12.388,0l0,0.825c-1.081,0.282 -1.831,0.733 -2.249,1.353c-0.417,0.62 -0.627,1.581 -0.627,2.883l0,5.98c-2.949,1.349 -6.759,2.024 -11.43,2.024c-3.113,-0 -5.874,-0.62 -8.283,-1.86c-2.409,-1.24 -4.298,-3.001 -5.666,-5.285c-1.368,-2.283 -2.053,-4.774 -2.053,-7.474c0,-4.315 1.516,-7.902 4.547,-10.757c3.032,-2.857 6.85,-4.285 11.455,-4.285c1.819,0 3.802,0.369 5.949,1.107c1.13,0.392 1.95,0.588 2.458,0.588c0.754,0 1.459,-0.322 2.114,-0.965l0.909,-0Z"/></g></svg>