<?xml version="1.0" encoding="UTF-8" standalone="no"?>
<!-- Generator: Adobe Illustrator 16.0.0, SVG Export Plug-In . SVG Version: 6.00 Build 0)  -->

<svg
  version="1.1"
  id="Layer_1"
  x="0px"
  y="0px"
  width="198.41022"
  height="49.551003"
  viewBox="0 0 198.41022 49.551003"
  enable-background="new 0 0 15984 696.24"
  xml:space="preserve"
  sodipodi:docname="rikoshea_logo.svg"
  inkscape:version="1.3.2 (091e20e, 2023-11-25)"
  xmlns:inkscape="http://www.inkscape.org/namespaces/inkscape"
  xmlns:sodipodi="http://sodipodi.sourceforge.net/DTD/sodipodi-0.dtd"
  xmlns="http://www.w3.org/2000/svg"
  xmlns:svg="http://www.w3.org/2000/svg"><defs
  id="defs31" /><sodipodi:namedview
  id="namedview31"
  pagecolor="#505050"
  bordercolor="#ffffff"
  borderopacity="1"
  inkscape:showpageshadow="0"
  inkscape:pageopacity="0"
  inkscape:pagecheckerboard="1"
  inkscape:deskcolor="#505050"
  showgrid="false"
  inkscape:zoom="3.77"
  inkscape:cx="97.480106"
  inkscape:cy="-7.5596817"
  inkscape:window-width="2560"
  inkscape:window-height="1416"
  inkscape:window-x="0"
  inkscape:window-y="75"
  inkscape:window-maximized="0"
  inkscape:current-layer="Layer_1" />
<g
  id="g31"
  transform="matrix(0.11482073,0,0,0.11482073,-818.44216,-15.298714)">
	<path
  fill-rule="evenodd"
  clip-rule="evenodd"
  d="m 7399.257,438.529 h -0.366 c -1.058,-0.922 -2.086,-1.901 -3.085,-2.938 -5.876,-6.683 -10.813,-13.971 -14.809,-21.863 -6.229,-12.329 -13.193,-24.226 -20.891,-35.69 -3.408,-5.07 -7.492,-9.593 -12.252,-13.568 -4.113,-3.341 -8.844,-5.185 -14.191,-5.53 -2.997,-0.058 -5.994,-0.087 -8.991,-0.087 v 47.271 2.506 c 0,4.493 0.705,8.872 2.115,13.136 1.528,4.205 4.29,7.374 8.286,9.506 3.644,1.671 7.463,2.593 11.459,2.766 v 4.493 c -19.775,-0.839 -39.55,-1.067 -59.324,-0.684 16.339,10.427 35.748,16.469 56.567,16.469 20.361,-0.002 39.371,-5.78 55.482,-15.787 z"
  id="path1" />
	<path
  fill-rule="evenodd"
  clip-rule="evenodd"
  d="m 7277.439,430.796 c 0.658,-0.379 1.3,-0.798 1.925,-1.254 2.997,-2.478 4.995,-5.588 5.994,-9.333 1.175,-4.609 1.704,-9.305 1.586,-14.086 V 305.1 302.248 c 0,-4.379 -0.705,-8.642 -2.116,-12.79 -1.586,-4.494 -4.554,-7.778 -8.902,-9.852 -2.976,-1.236 -6.06,-2.006 -9.252,-2.308 -17.496,18.801 -28.198,44.009 -28.198,71.717 0,33.011 15.191,62.474 38.963,81.781 z"
  id="path2" />
	<path
  fill-rule="evenodd"
  clip-rule="evenodd"
  d="m 7271.23,272.693 h 89.405 c 5.817,0 11.547,0.634 17.188,1.901 11.048,2.42 20.068,7.979 27.061,16.679 10.813,16.938 9.813,33.156 -2.997,48.654 -6.758,6.222 -14.721,10.255 -23.888,12.098 4.466,3.745 8.521,7.864 12.164,12.358 7.639,10.024 14.574,20.48 20.803,31.37 4.244,7.126 8.788,14.046 13.632,20.76 15.279,-18.275 24.475,-41.813 24.475,-67.497 0,-58.155 -47.144,-105.299 -105.299,-105.299 -28.115,0 -53.658,11.019 -72.544,28.976 z"
  id="path3" />
	<path
  fill-rule="evenodd"
  clip-rule="evenodd"
  d="m 7324.672,283.149 v 65.245 l 11.635,-0.086 c 6.111,0.058 12.076,-0.921 17.894,-2.938 7.757,-2.823 12.899,-8.095 15.426,-15.814 2.468,-8.469 2.703,-16.996 0.705,-25.58 -1.763,-7.202 -5.935,-12.617 -12.517,-16.247 -5.465,-2.708 -11.253,-4.177 -17.365,-4.407 -5.289,-0.173 -10.548,-0.23 -15.778,-0.173 z"
  id="path4" />
	<path
  fill-rule="evenodd"
  clip-rule="evenodd"
  d="m 7508.533,378.175 h -35.434 c -11.15,49.664 -50.176,88.787 -99.786,100.079 v 35.452 c 68.842,-12.265 123.11,-66.636 135.22,-135.531 z"
  id="path5" />
	<path
  fill-rule="evenodd"
  clip-rule="evenodd"
  fill="#f8a500"
  d="m 7473.43,321.371 h 35.362 c -11.576,-69.612 -66.133,-124.692 -135.479,-137.046 v 35.453 c 50.114,11.406 89.427,51.211 100.117,101.593 z"
  id="path6" />
	<path
  fill-rule="evenodd"
  clip-rule="evenodd"
  fill="#f8a500"
  d="m 7214.452,378.175 h -35.434 c 12.243,69.651 67.574,124.459 137.492,135.92 v -35.346 c -50.688,-10.599 -90.739,-50.154 -102.058,-100.574 z"
  id="path7" />
	<path
  fill-rule="evenodd"
  clip-rule="evenodd"
  d="m 7178.759,321.371 h 35.362 c 10.851,-51.141 51.194,-91.384 102.389,-102.089 v -35.345 c -70.424,11.543 -126.05,67.064 -137.751,137.434 z"
  id="path8" />
	<path
  fill-rule="evenodd"
  clip-rule="evenodd"
  d="m 7526.407,320.839 h 33.144 C 7546.927,223.206 7469.586,145.864 7371.952,133.24 v 33.144 c 79.484,12.162 142.293,74.972 154.455,154.455 z"
  id="path9" />
	<path
  fill-rule="evenodd"
  clip-rule="evenodd"
  fill="#f8a500"
  d="m 7559.551,377.192 h -33.144 c -12.162,79.483 -74.972,142.293 -154.455,154.455 v 33.144 c 97.634,-12.624 174.975,-89.965 187.599,-187.599 z"
  id="path10" />
	<path
  fill-rule="evenodd"
  clip-rule="evenodd"
  d="M 7315.599,564.791 V 531.647 C 7236.116,519.485 7173.306,456.675 7161.144,377.192 H 7128 c 12.624,97.634 89.965,174.975 187.599,187.599 z"
  id="path11" />
	<path
  fill-rule="evenodd"
  clip-rule="evenodd"
  fill="#f8a500"
  d="m 7128,320.839 h 33.144 c 12.162,-79.483 74.972,-142.293 154.455,-154.455 V 133.24 C 7217.965,145.864 7140.624,223.206 7128,320.839 Z"
  id="path12" />
	<path
  fill-rule="evenodd"
  clip-rule="evenodd"
  d="m 7588.8,381.895 v -4.364 c 12.89,-0.998 19.335,-7.358 19.335,-19.081 V 257.31 c 0,-6.901 -1.335,-11.681 -4.007,-14.342 -2.672,-2.661 -7.781,-4.697 -15.328,-6.111 v -4.365 h 72.506 c 18.996,0 33.603,3.284 43.822,9.852 10.219,6.568 15.328,15.797 15.328,27.686 0,8.563 -2.657,15.921 -7.971,22.074 -5.314,6.153 -12.932,10.642 -22.854,13.468 v 0.499 c 3.562,0.833 7.42,3.726 11.576,8.679 4.155,4.953 10.184,14.659 18.084,29.118 7.73,14.044 13.355,22.937 16.875,26.678 3.52,3.741 8.332,6.069 14.438,6.984 v 4.364 h -43.947 c -5.757,-6.678 -13.146,-18.781 -22.167,-36.308 -6.212,-12.044 -10.823,-20.061 -13.833,-24.052 -3.011,-3.99 -6.148,-6.796 -9.413,-8.417 -3.265,-1.622 -9.774,-2.432 -19.526,-2.432 v 45.894 c 0,6.567 1.484,11.452 4.452,14.653 2.968,3.2 8.014,5.3 15.137,6.298 v 4.364 H 7588.8 Z m 63.347,-140.922 h -10.431 v 61.232 c 2.629,0.166 5.088,0.249 7.378,0.249 12.126,0 20.967,-2.556 26.522,-7.669 5.554,-5.113 8.332,-13.198 8.332,-24.256 0,-19.704 -10.6,-29.556 -31.801,-29.556 z"
  id="path13" />
	<path
  fill-rule="evenodd"
  clip-rule="evenodd"
  d="m 7841.268,232.493 v 4.365 c -7.497,1.663 -12.551,3.887 -15.163,6.672 -2.611,2.785 -3.917,8.543 -3.917,17.272 v 95.777 c 0,6.734 1.222,11.432 3.664,14.092 2.443,2.66 7.582,4.947 15.417,6.859 v 4.364 h -71.997 v -4.364 c 5.427,-1.33 9.477,-2.785 12.148,-4.365 2.671,-1.579 4.537,-3.575 5.597,-5.986 1.061,-2.411 1.59,-7.025 1.59,-13.843 v -95.527 c 0,-6.734 -1.251,-11.452 -3.752,-14.154 -2.502,-2.702 -7.696,-4.968 -15.583,-6.797 v -4.365 z"
  id="path14" />
	<path
  fill-rule="evenodd"
  clip-rule="evenodd"
  d="m 7972.255,261.767 -28.356,26.263 60.977,73.61 c 5.092,6.154 9.074,10.237 11.945,12.247 2.873,2.011 6.42,3.225 10.643,3.644 v 4.364 h -69.58 v -4.364 c 7.039,-1.58 10.558,-3.949 10.558,-7.108 0,-1.746 -1.06,-3.866 -3.18,-6.36 l -47.701,-57.99 v 48.762 c 0,7.233 1.045,12.2 3.137,14.902 2.091,2.702 7.406,5.301 15.943,7.795 v 4.364 h -71.997 v -4.364 c 8.056,-1.829 13.293,-4.157 15.709,-6.984 2.417,-2.826 3.625,-7.731 3.625,-14.716 v -98.021 c 0,-6.817 -1.251,-11.556 -3.752,-14.217 -2.502,-2.66 -7.696,-4.905 -15.583,-6.734 v -4.365 h 71.997 v 4.365 c -7.427,1.663 -12.463,3.929 -15.11,6.797 -2.646,2.868 -3.97,6.963 -3.97,12.284 v 44.272 l 46.938,-44.272 c 3.138,-2.91 4.707,-5.778 4.707,-8.605 0,-4.822 -4.707,-8.314 -14.12,-10.476 v -4.365 h 63.347 v 4.365 c -7.125,0 -14.143,1.849 -21.056,5.547 -6.913,3.698 -15.287,10.149 -25.121,19.36 z"
  id="path15" />
	<path
  fill-rule="evenodd"
  clip-rule="evenodd"
  d="m 8200.644,307.318 c 0,22.864 -7.802,41.653 -23.405,56.369 -15.603,14.716 -35.532,22.073 -59.785,22.073 -24.17,0 -44.014,-7.357 -59.532,-22.073 -15.518,-14.716 -23.278,-33.505 -23.278,-56.369 0,-22.863 7.781,-41.694 23.342,-56.493 15.562,-14.799 35.385,-22.198 59.469,-22.198 24.253,0 44.182,7.399 59.785,22.198 15.603,14.799 23.404,33.63 23.404,56.493 z m -36.507,0.998 c 0,-23.196 -3.965,-40.863 -11.895,-53.002 -7.928,-12.138 -19.525,-18.208 -34.789,-18.208 -15.096,0 -26.586,6.069 -34.473,18.208 -7.887,12.139 -11.83,29.889 -11.83,53.251 0,21.7 3.986,38.577 11.957,50.632 7.972,12.056 19.42,18.083 34.346,18.083 14.67,0 26.119,-5.985 34.345,-17.958 8.225,-11.972 12.339,-28.974 12.339,-51.006 z"
  id="path16" />
	<path
  fill-rule="evenodd"
  clip-rule="evenodd"
  d="m 8315.986,228.627 v 39.408 h -4.452 c -2.962,-8.73 -8.061,-16.067 -15.296,-22.012 -7.236,-5.944 -14.705,-8.917 -22.408,-8.917 -6.939,0 -12.842,1.954 -17.708,5.861 -4.866,3.907 -7.3,8.688 -7.3,14.342 0,2.744 0.637,5.466 1.908,8.168 1.272,2.702 3.117,5.217 5.533,7.545 2.417,2.328 10.206,7.51 23.366,15.548 13.416,8.037 22.07,13.637 25.964,16.8 3.893,3.162 7.617,7.198 11.172,12.107 5.417,7.573 8.125,15.854 8.125,24.842 0,13.314 -4.771,23.882 -14.311,31.706 -9.54,7.824 -21.095,11.734 -34.663,11.734 -7.293,0 -15.985,-1.289 -26.076,-3.866 -5.343,-1.33 -9.074,-1.995 -11.194,-1.995 -3.562,0 -6.148,1.621 -7.76,4.863 h -4.452 v -45.02 h 4.452 c 2.29,11.64 7.039,20.806 14.247,27.498 7.208,6.693 16.07,10.039 26.586,10.039 8.141,0 14.861,-1.995 20.161,-5.985 5.301,-3.991 7.951,-9.063 7.951,-15.215 0,-4.988 -1.696,-9.707 -5.089,-14.155 -3.392,-4.448 -12.476,-10.979 -27.251,-19.595 -13.586,-7.953 -22.577,-14.093 -26.975,-18.421 -4.396,-4.328 -7.716,-9.176 -9.957,-14.544 -2.242,-5.368 -3.362,-11.049 -3.362,-17.042 0,-12.818 4.467,-23.305 13.4,-31.462 8.933,-8.157 20.428,-12.235 34.483,-12.235 4.318,0 9.526,0.707 15.623,2.12 6.096,1.331 10.414,1.996 12.955,1.996 2.455,0 5.08,-1.372 7.874,-4.115 h 4.454 z"
  id="path17" />
	<path
  fill-rule="evenodd"
  clip-rule="evenodd"
  d="m 8478.013,353.336 v -44.022 h -73.142 v 47.265 c 0,6.817 1.187,11.535 3.562,14.154 2.374,2.619 7.42,4.885 15.137,6.797 v 4.364 h -71.615 v -4.364 c 5.427,-1.33 9.477,-2.785 12.147,-4.365 2.672,-1.579 4.537,-3.596 5.598,-6.048 1.06,-2.453 1.59,-7.047 1.59,-13.781 v -95.527 c 0,-6.734 -1.251,-11.452 -3.753,-14.154 -2.502,-2.702 -7.695,-4.968 -15.582,-6.797 v -4.365 h 71.615 v 4.365 c -7.378,1.663 -12.339,3.887 -14.883,6.672 -2.544,2.785 -3.815,7.171 -3.815,13.157 v 41.902 h 73.142 v -40.78 c 0,-6.734 -1.237,-11.452 -3.714,-14.154 -2.476,-2.702 -7.598,-4.968 -15.366,-6.797 v -4.365 h 71.997 v 4.365 c -8.141,2.079 -13.398,4.427 -15.773,7.046 -2.374,2.619 -3.562,8.334 -3.562,17.147 v 95.528 c 0,6.65 1.229,11.327 3.688,14.029 2.46,2.702 7.675,5.01 15.646,6.922 v 4.364 h -71.997 v -4.364 c 7.427,-1.663 12.464,-3.929 15.11,-6.797 2.646,-2.868 3.97,-8.667 3.97,-17.397 z"
  id="path18" />
	<path
  fill-rule="evenodd"
  clip-rule="evenodd"
  d="m 8656.194,283.998 h 4.961 v 46.267 h -4.961 c -1.781,-12.72 -8.819,-19.081 -21.116,-19.081 h -26.84 v 43.897 c 0,6.734 1.565,11.474 4.696,14.217 3.132,2.744 8.505,4.116 16.121,4.116 h 8.887 c 14.895,0 25.558,-9.271 31.989,-27.811 h 4.452 l -2.798,36.29 h -116.01 v -4.364 c 7.665,-1.58 12.762,-3.846 15.289,-6.797 2.527,-2.951 3.791,-8.667 3.791,-17.147 V 257.56 c 0,-6.984 -1.306,-11.827 -3.917,-14.529 -2.612,-2.702 -7.666,-4.76 -15.163,-6.173 v -4.365 h 114.229 v 33.173 h -4.452 c -2.544,-9.728 -5.702,-16.275 -9.477,-19.642 -3.773,-3.367 -9.815,-5.05 -18.126,-5.05 h -29.512 v 61.731 h 26.84 c 6.105,0 10.77,-1.423 13.992,-4.268 3.224,-2.847 5.599,-7.66 7.125,-14.439 z"
  id="path19" />
	<path
  fill-rule="evenodd"
  clip-rule="evenodd"
  d="m 8781.331,381.895 v -4.364 c 6.252,-1.164 10.666,-2.599 13.243,-4.303 2.577,-1.704 3.866,-4.095 3.866,-7.171 0,-2.494 -0.979,-6.318 -2.936,-11.474 l -8.81,-22.946 h -54.387 l -7.527,19.821 c -1.923,5.068 -2.884,9.142 -2.884,12.22 0,6.573 5.098,11.19 15.294,13.853 v 4.364 h -49.228 v -4.364 c 5.937,-0.998 11.109,-4.032 15.519,-9.104 4.41,-5.071 8.78,-13.344 13.112,-24.817 l 43.823,-114.982 h 20.813 l 46.344,119.592 c 4.244,10.642 8.406,18.063 12.486,22.262 4.081,4.2 9.394,6.55 15.939,7.049 v 4.364 z m -44.138,-60.983 h 45.398 l -23.203,-60.609 z"
  id="path20" />
	<path
  fill-rule="evenodd"
  clip-rule="evenodd"
  d="m 7645.246,440.111 h -1.696 c -1.404,-5.938 -3.939,-10.546 -7.604,-13.826 -3.665,-3.28 -8.118,-4.921 -13.358,-4.921 -5.72,0 -10.267,2.313 -13.641,6.938 -3.374,4.626 -5.061,10.842 -5.061,18.648 0,8.693 1.97,15.418 5.909,20.174 3.939,4.757 9.368,7.135 16.287,7.135 3.733,0 7.159,-0.738 10.276,-2.214 3.117,-1.477 6.285,-3.854 9.505,-7.135 v 3.1 c -6.097,8.004 -14.403,12.006 -24.919,12.006 -9.419,0 -17.075,-2.797 -22.966,-8.39 -5.892,-5.593 -8.837,-12.851 -8.837,-21.772 0,-9.054 3.177,-16.623 9.531,-22.708 6.354,-6.084 14.258,-9.127 23.711,-9.127 3.871,0 8.238,0.82 13.102,2.46 2.089,0.722 3.511,1.083 4.265,1.083 1.507,0 2.774,-1.018 3.802,-3.051 h 1.696 v 21.6 z"
  id="path21" />
	<path
  fill-rule="evenodd"
  clip-rule="evenodd"
  d="m 7777.086,449.066 c 0,9.021 -3.151,16.434 -9.454,22.24 -6.302,5.806 -14.352,8.709 -24.148,8.709 -9.762,0 -17.777,-2.903 -24.045,-8.709 -6.268,-5.807 -9.402,-13.22 -9.402,-22.24 0,-9.02 3.143,-16.45 9.428,-22.289 6.285,-5.839 14.292,-8.759 24.02,-8.759 9.796,0 17.846,2.92 24.148,8.759 6.302,5.839 9.453,13.269 9.453,22.289 z m -14.746,0.394 c 0,-9.152 -1.601,-16.123 -4.804,-20.912 -3.203,-4.789 -7.887,-7.184 -14.052,-7.184 -6.097,0 -10.738,2.395 -13.923,7.184 -3.185,4.789 -4.778,11.793 -4.778,21.011 0,8.562 1.61,15.22 4.83,19.977 3.22,4.756 7.844,7.135 13.872,7.135 5.926,0 10.55,-2.362 13.873,-7.086 3.321,-4.725 4.982,-11.433 4.982,-20.125 z"
  id="path22" />
	<path
  fill-rule="evenodd"
  clip-rule="evenodd"
  d="m 7885.908,421.266 v -1.722 h 20.757 v 1.722 c -5.96,0.328 -8.94,3.543 -8.94,9.645 v 48.269 h -2.014 l -44.278,-47.783 v 36.033 c 0,3.146 0.6,5.35 1.798,6.611 1.198,1.261 3.614,2.171 7.245,2.728 v 1.723 h -21.22 v -1.723 c 2.877,-0.426 4.941,-1.369 6.191,-2.829 1.25,-1.459 1.875,-3.73 1.875,-6.814 v -40.003 c -2.397,-2.361 -4.05,-3.87 -4.958,-4.526 -0.908,-0.656 -1.978,-1.099 -3.211,-1.329 v -1.722 h 18.492 l 35.969,39.511 v -26.521 c 0,-3.904 -0.536,-6.602 -1.607,-8.095 -1.071,-1.494 -3.104,-2.551 -6.099,-3.175 z"
  id="path23" />
	<path
  fill-rule="evenodd"
  clip-rule="evenodd"
  d="m 8008.5,476.768 v 1.723 h -28.875 v -1.723 c 3.028,-0.558 5.07,-1.41 6.125,-2.559 1.055,-1.147 1.583,-3.247 1.583,-6.298 V 422.89 h -6.149 c -3.724,0 -6.67,0.771 -8.84,2.313 -2.169,1.542 -3.784,3.985 -4.843,7.332 h -1.798 l 0.616,-14.221 h 1.901 c 1.335,0.82 3.356,1.23 6.063,1.23 h 39.716 c 2.774,0 4.795,-0.41 6.063,-1.23 h 1.901 l 0.616,14.221 h -1.798 c -1.06,-3.347 -2.674,-5.79 -4.843,-7.332 -2.17,-1.541 -5.116,-2.313 -8.84,-2.313 h -6.15 v 45.12 c 0,2.887 0.531,4.945 1.594,6.175 1.061,1.23 3.047,2.091 5.958,2.583 z"
  id="path24" />
	<path
  fill-rule="evenodd"
  clip-rule="evenodd"
  d="m 8083.053,478.49 v -1.723 c 5.207,-0.394 7.811,-2.902 7.811,-7.527 v -39.904 c 0,-2.723 -0.54,-4.609 -1.619,-5.659 -1.078,-1.05 -3.143,-1.854 -6.191,-2.411 v -1.722 h 29.287 c 7.672,0 13.572,1.296 17.699,3.887 4.128,2.592 6.191,6.232 6.191,10.924 0,3.379 -1.073,6.281 -3.22,8.709 -2.147,2.428 -5.224,4.198 -9.231,5.313 v 0.197 c 1.439,0.328 2.998,1.47 4.676,3.424 1.679,1.955 4.113,5.784 7.305,11.489 3.123,5.541 5.395,9.049 6.816,10.525 1.422,1.476 3.365,2.395 5.831,2.755 v 1.723 h -17.751 c -2.325,-2.635 -5.31,-7.41 -8.953,-14.325 -2.509,-4.752 -4.371,-7.915 -5.588,-9.489 -1.215,-1.575 -2.482,-2.682 -3.802,-3.321 -1.318,-0.64 -3.947,-0.96 -7.887,-0.96 v 18.107 c 0,2.591 0.6,4.519 1.798,5.781 1.199,1.263 3.237,2.091 6.115,2.484 v 1.723 z m 25.588,-55.6 h -4.214 v 24.159 c 1.062,0.065 2.056,0.099 2.98,0.099 4.897,0 8.469,-1.009 10.712,-3.026 2.244,-2.018 3.365,-5.207 3.365,-9.57 0,-7.775 -4.281,-11.662 -12.843,-11.662 z"
  id="path25" />
	<path
  fill-rule="evenodd"
  clip-rule="evenodd"
  d="m 8244.591,478.49 v -1.723 c 2.524,-0.459 4.308,-1.024 5.349,-1.697 1.041,-0.672 1.562,-1.615 1.562,-2.829 0,-0.984 -0.396,-2.493 -1.186,-4.526 l -3.558,-9.054 h -21.968 l -3.04,7.82 c -0.777,2 -1.165,3.606 -1.165,4.821 0,2.594 2.059,4.415 6.177,5.465 v 1.723 h -19.883 v -1.723 c 2.397,-0.394 4.486,-1.591 6.268,-3.592 1.782,-2.001 3.547,-5.265 5.297,-9.791 l 17.7,-45.366 h 8.406 l 18.719,47.185 c 1.714,4.199 3.396,7.127 5.044,8.784 1.647,1.657 3.794,2.584 6.438,2.78 v 1.723 z m -17.828,-24.06 h 18.337 l -9.372,-23.913 z"
  id="path26" />
	<path
  fill-rule="evenodd"
  clip-rule="evenodd"
  d="m 8390.499,440.111 h -1.695 c -1.405,-5.938 -3.939,-10.546 -7.604,-13.826 -3.665,-3.28 -8.118,-4.921 -13.358,-4.921 -5.721,0 -10.268,2.313 -13.642,6.938 -3.373,4.626 -5.061,10.842 -5.061,18.648 0,8.693 1.97,15.418 5.908,20.174 3.939,4.757 9.369,7.135 16.287,7.135 3.734,0 7.159,-0.738 10.276,-2.214 3.117,-1.477 6.285,-3.854 9.505,-7.135 v 3.1 c -6.097,8.004 -14.403,12.006 -24.919,12.006 -9.419,0 -17.074,-2.797 -22.966,-8.39 -5.892,-5.593 -8.838,-12.851 -8.838,-21.772 0,-9.054 3.178,-16.623 9.531,-22.708 6.354,-6.084 14.258,-9.127 23.711,-9.127 3.871,0 8.238,0.82 13.102,2.46 2.09,0.722 3.512,1.083 4.265,1.083 1.508,0 2.774,-1.018 3.803,-3.051 h 1.695 z"
  id="path27" />
	<path
  fill-rule="evenodd"
  clip-rule="evenodd"
  d="m 8494.954,476.768 v 1.723 h -28.875 v -1.723 c 3.028,-0.558 5.069,-1.41 6.125,-2.559 1.055,-1.147 1.582,-3.247 1.582,-6.298 V 422.89 h -6.149 c -3.724,0 -6.671,0.771 -8.84,2.313 -2.17,1.542 -3.784,3.985 -4.843,7.332 h -1.799 l 0.617,-14.221 h 1.9 c 1.336,0.82 3.357,1.23 6.063,1.23 h 39.715 c 2.775,0 4.796,-0.41 6.063,-1.23 h 1.901 l 0.616,14.221 h -1.799 c -1.059,-3.347 -2.673,-5.79 -4.843,-7.332 -2.169,-1.541 -5.116,-2.313 -8.84,-2.313 h -6.149 v 45.12 c 0,2.887 0.531,4.945 1.593,6.175 1.064,1.23 3.051,2.091 5.962,2.583 z"
  id="path28" />
	<path
  fill-rule="evenodd"
  clip-rule="evenodd"
  d="m 8600.386,419.544 v 1.722 c -3.028,0.656 -5.069,1.534 -6.124,2.633 -1.056,1.099 -1.583,3.37 -1.583,6.814 v 37.789 c 0,2.657 0.493,4.51 1.48,5.56 0.986,1.05 3.062,1.952 6.227,2.706 v 1.723 h -29.08 v -1.723 c 2.191,-0.524 3.827,-1.099 4.906,-1.722 1.079,-0.623 1.833,-1.41 2.261,-2.361 0.428,-0.952 0.643,-2.772 0.643,-5.462 v -37.69 c 0,-2.657 -0.506,-4.519 -1.516,-5.585 -1.011,-1.065 -3.108,-1.96 -6.294,-2.682 v -1.722 z"
  id="path29" />
	<path
  fill-rule="evenodd"
  clip-rule="evenodd"
  d="m 8709.619,421.266 v -1.722 h 20.758 v 1.722 c -5.961,0.328 -8.94,3.543 -8.94,9.645 v 48.269 h -2.015 l -44.277,-47.783 v 36.033 c 0,3.146 0.599,5.35 1.798,6.611 1.199,1.261 3.614,2.171 7.244,2.728 v 1.723 h -21.219 v -1.723 c 2.877,-0.426 4.94,-1.369 6.19,-2.829 1.25,-1.459 1.876,-3.73 1.876,-6.814 v -40.003 c -2.398,-2.361 -4.051,-3.87 -4.958,-4.526 -0.908,-0.656 -1.979,-1.099 -3.212,-1.329 v -1.722 h 18.493 l 35.969,39.511 v -26.521 c 0,-3.904 -0.535,-6.602 -1.607,-8.095 -1.073,-1.494 -3.106,-2.551 -6.1,-3.175 z"
  id="path30" />
	<path
  fill-rule="evenodd"
  clip-rule="evenodd"
  d="m 8849.988,419.544 v 16.532 h -1.9 c -1.815,-4.494 -4.633,-8.069 -8.452,-10.727 -3.819,-2.656 -8.041,-3.985 -12.665,-3.985 -6.233,0 -11.055,2.542 -14.463,7.627 -3.408,5.084 -5.112,12.252 -5.112,21.502 0,8.528 1.695,15.023 5.087,19.484 3.391,4.462 8.289,6.692 14.694,6.692 6.165,0 9.248,-2.083 9.248,-6.249 v -8.759 c 0,-4.034 -2.106,-6.445 -6.319,-7.232 v -1.723 H 8856 v 1.723 c -2.261,0.59 -3.828,1.533 -4.701,2.829 -0.873,1.296 -1.311,3.305 -1.311,6.027 v 12.498 c -6.165,2.821 -14.129,4.231 -23.891,4.231 -6.508,0 -12.279,-1.296 -17.314,-3.888 -5.035,-2.591 -8.983,-6.273 -11.844,-11.046 -2.859,-4.772 -4.29,-9.98 -4.29,-15.622 0,-9.021 3.169,-16.517 9.505,-22.486 6.337,-5.97 14.318,-8.955 23.943,-8.955 3.802,0 7.946,0.771 12.434,2.313 2.363,0.82 4.076,1.23 5.138,1.23 1.575,0 3.049,-0.673 4.419,-2.018 h 1.9 z"
  id="path31" />
</g>
</svg>
