<?xml version="1.0" encoding="UTF-8"?>
<svg xmlns="http://www.w3.org/2000/svg" xmlns:xlink="http://www.w3.org/1999/xlink" version="1.1" viewBox="0 0 1134.86 1134.86">
  <defs>
    <linearGradient id="linear-gradient" x1="150.71" y1="514.89" x2="982.49" y2="514.89" gradientTransform="translate(0 54)" gradientUnits="userSpaceOnUse">
      <stop offset="0" stop-color="#c2943e"/>
      <stop offset=".54" stop-color="#ebd39d"/>
      <stop offset="1" stop-color="#c0933c"/>
    </linearGradient>
    <linearGradient id="linear-gradient-2" x1="-4494.83" y1="3398.81" x2="-3663.05" y2="3398.81" gradientTransform="translate(3966.24 4647) rotate(90)" gradientUnits="userSpaceOnUse">
      <stop offset="0" stop-color="#c2943e"/>
      <stop offset=".54" stop-color="#ebd39d"/>
      <stop offset="1" stop-color="#c0933c"/>
    </linearGradient>
    <linearGradient id="linear-gradient-3" x1="150.71" y1="659.83" x2="982.49" y2="659.83" gradientTransform="translate(0 54)" gradientUnits="userSpaceOnUse">
      <stop offset="0" stop-color="#c2943e"/>
      <stop offset=".54" stop-color="#ebd39d"/>
      <stop offset="1" stop-color="#c0933c"/>
    </linearGradient>
    <linearGradient id="linear-gradient-4" x1="150.71" y1="659.83" x2="982.49" y2="659.83" gradientTransform="translate(0 54)" gradientUnits="userSpaceOnUse">
      <stop offset="0" stop-color="#c2943e"/>
      <stop offset=".54" stop-color="#ebd39d"/>
      <stop offset="1" stop-color="#c0933c"/>
    </linearGradient>
    <linearGradient id="linear-gradient-5" x1="164.65" y1="655.36" x2="834.68" y2="655.36" gradientTransform="translate(0 54)" gradientUnits="userSpaceOnUse">
      <stop offset="0" stop-color="#c2943e"/>
      <stop offset=".54" stop-color="#ebd39d"/>
      <stop offset="1" stop-color="#c0933c"/>
    </linearGradient>
    <linearGradient id="linear-gradient-6" x1="518.65" y1="655.71" x2="1188.68" y2="655.71" gradientTransform="translate(0 54)" gradientUnits="userSpaceOnUse">
      <stop offset="0" stop-color="#c2943e"/>
      <stop offset=".54" stop-color="#ebd39d"/>
      <stop offset="1" stop-color="#c0933c"/>
    </linearGradient>
    <linearGradient id="linear-gradient-7" x1="150.71" y1="469.88" x2="982.49" y2="469.88" gradientTransform="translate(0 54)" gradientUnits="userSpaceOnUse">
      <stop offset="0" stop-color="#c2943e"/>
      <stop offset=".54" stop-color="#ebd39d"/>
      <stop offset="1" stop-color="#c0933c"/>
    </linearGradient>
    <linearGradient id="linear-gradient-8" x1="150.71" y1="472.89" x2="982.49" y2="472.89" gradientTransform="translate(0 54)" gradientUnits="userSpaceOnUse">
      <stop offset="0" stop-color="#c2943e"/>
      <stop offset=".54" stop-color="#ebd39d"/>
      <stop offset="1" stop-color="#c0933c"/>
    </linearGradient>
    <linearGradient id="linear-gradient-9" x1="147.84" y1="634.03" x2="979.61" y2="634.03" gradientTransform="translate(0 54)" gradientUnits="userSpaceOnUse">
      <stop offset="0" stop-color="#c2943e"/>
      <stop offset=".54" stop-color="#ebd39d"/>
      <stop offset="1" stop-color="#c0933c"/>
    </linearGradient>
    <linearGradient id="linear-gradient-10" x1="147.84" y1="634.02" x2="979.61" y2="634.02" gradientTransform="translate(0 54)" gradientUnits="userSpaceOnUse">
      <stop offset="0" stop-color="#c2943e"/>
      <stop offset=".54" stop-color="#ebd39d"/>
      <stop offset="1" stop-color="#c0933c"/>
    </linearGradient>
    <linearGradient id="linear-gradient-11" x1="147.84" y1="634.02" x2="979.61" y2="634.02" gradientTransform="translate(0 54)" gradientUnits="userSpaceOnUse">
      <stop offset="0" stop-color="#c2943e"/>
      <stop offset=".54" stop-color="#ebd39d"/>
      <stop offset="1" stop-color="#c0933c"/>
    </linearGradient>
    <linearGradient id="linear-gradient-12" x1="147.84" y1="634.03" x2="979.61" y2="634.03" gradientTransform="translate(0 54)" gradientUnits="userSpaceOnUse">
      <stop offset="0" stop-color="#c2943e"/>
      <stop offset=".54" stop-color="#ebd39d"/>
      <stop offset="1" stop-color="#c0933c"/>
    </linearGradient>
    <linearGradient id="linear-gradient-13" x1="147.84" y1="634.02" x2="979.61" y2="634.02" gradientTransform="translate(0 54)" gradientUnits="userSpaceOnUse">
      <stop offset="0" stop-color="#c2943e"/>
      <stop offset=".54" stop-color="#ebd39d"/>
      <stop offset="1" stop-color="#c0933c"/>
    </linearGradient>
    <linearGradient id="linear-gradient-14" x1="150.71" y1="724.86" x2="982.49" y2="724.86" gradientTransform="translate(0 54)" gradientUnits="userSpaceOnUse">
      <stop offset="0" stop-color="#c2943e"/>
      <stop offset=".54" stop-color="#ebd39d"/>
      <stop offset="1" stop-color="#c0933c"/>
    </linearGradient>
    <linearGradient id="linear-gradient-15" x1="177.72" y1="513.43" x2="957.15" y2="513.43" gradientTransform="translate(0 54)" gradientUnits="userSpaceOnUse">
      <stop offset="0" stop-color="#c2943e"/>
      <stop offset=".54" stop-color="#ebd39d"/>
      <stop offset="1" stop-color="#c0933c"/>
    </linearGradient>
    <linearGradient id="linear-gradient-16" x1="150.66" y1="724.86" x2="982.64" y2="724.86" gradientTransform="translate(0 54)" gradientUnits="userSpaceOnUse">
      <stop offset="0" stop-color="#c2943e"/>
      <stop offset=".54" stop-color="#ebd39d"/>
      <stop offset="1" stop-color="#c0933c"/>
    </linearGradient>
  </defs>
  <!-- Generator: Adobe Illustrator 28.7.1, SVG Export Plug-In . SVG Version: 1.2.0 Build 142)  -->
  <g>
    <g id="Layer_1">
      <g id="Layer_1-2" data-name="Layer_1">
        <g id="Layer_1-2">
          <g>
            <circle cx="567.43" cy="568.89" r="266.6" fill="#020202"/>
            <path d="M567.43,269.66c-165.26,0-299.23,133.97-299.23,299.23s133.97,299.23,299.23,299.23,299.23-133.97,299.23-299.23-133.97-299.23-299.23-299.23h0ZM567.43,848.41c-154.38,0-279.53-125.15-279.53-279.53s125.15-279.53,279.53-279.53,279.53,125.15,279.53,279.53-125.15,279.53-279.53,279.53h0Z" fill="url(#linear-gradient)"/>
            <path d="M567.43,289.36c-154.38,0-279.53,125.15-279.53,279.53s125.15,279.53,279.53,279.53,279.53-125.15,279.53-279.53-125.15-279.53-279.53-279.53h0ZM567.43,835.48c-147.24,0-266.6-119.36-266.6-266.6s119.36-266.6,266.6-266.6,266.6,119.36,266.6,266.6-119.36,266.6-266.6,266.6h0Z" fill="url(#linear-gradient-2)"/>
            <g>
              <polygon points="704.73 691.31 710.32 708.52 728.41 708.52 713.77 719.15 719.36 736.36 704.73 725.73 690.09 736.36 695.68 719.15 681.04 708.52 699.13 708.52 704.73 691.31" fill="url(#linear-gradient-3)"/>
              <polygon points="430.13 691.31 435.72 708.52 453.81 708.52 439.17 719.15 444.76 736.36 430.13 725.73 415.49 736.36 421.08 719.15 406.44 708.52 424.53 708.52 430.13 691.31" fill="url(#linear-gradient-4)"/>
              <polygon points="389.73 691.22 394.24 705.08 408.81 705.08 397.02 713.65 401.52 727.51 389.73 718.94 377.94 727.51 382.44 713.65 370.65 705.08 385.23 705.08 389.73 691.22" fill="url(#linear-gradient-5)"/>
              <polygon points="743.73 691.57 748.24 705.43 762.81 705.43 751.02 714 755.52 727.86 743.73 719.29 731.94 727.86 736.44 714 724.65 705.43 739.23 705.43 743.73 691.57" fill="url(#linear-gradient-6)"/>
            </g>
            <g>
              <path d="M564.52,634.96h-150.22v-29.8l70.9-75.56c9.73-10.64,16.93-19.92,21.6-27.85s7-15.45,7-22.58c0-9.73-2.46-17.38-7.38-22.95s-11.94-8.35-21.07-8.35c-9.84,0-17.59,3.39-23.26,10.16s-8.5,15.68-8.5,26.72h-43.65c0-13.35,3.18-25.54,9.56-36.58,6.37-11.04,15.38-19.69,27.02-25.97,11.64-6.27,24.84-9.41,39.59-9.41,22.58,0,40.11,5.42,52.61,16.26,12.49,10.84,18.74,26.14,18.74,45.91,0,10.84-2.81,21.88-8.43,33.11-5.62,11.24-15.25,24.34-28.9,39.29l-49.82,52.53h94.23v35.07h-.02,0Z" fill="url(#linear-gradient-7)"/>
              <path d="M582.22,527.19l12.64-111.39h122.83v36.28h-87.15l-5.42,47.11c10.33-5.52,21.32-8.28,32.96-8.28,20.87,0,37.23,6.47,49.07,19.42,11.84,12.94,17.76,31.06,17.76,54.34,0,14.15-2.99,26.82-8.96,38.01-5.97,11.19-14.53,19.87-25.66,26.04-11.14,6.17-24.29,9.26-39.44,9.26-13.25,0-25.54-2.69-36.88-8.05-11.34-5.37-20.3-12.92-26.87-22.65-6.57-9.73-10.06-20.82-10.46-33.27h43.05c.9,9.13,4.09,16.23,9.56,21.3s12.62,7.6,21.45,7.6c9.83,0,17.41-3.54,22.73-10.61s7.98-17.08,7.98-30.03-3.06-21.98-9.18-28.6-14.8-9.93-26.04-9.93c-10.34,0-18.72,2.71-25.14,8.13l-4.21,3.91-34.62-8.58h0Z" fill="url(#linear-gradient-8)"/>
            </g>
            <g>
              <path d="M480.88,686.74l11.28-23.23h9.43l-16.43,30.98v18.05h-8.55v-18.05l-16.47-30.98h9.46l11.28,23.23Z" fill="url(#linear-gradient-9)"/>
              <path d="M535.57,690.65h-20.14v15.08h23.54v6.8h-32.05v-49.02h31.82v6.87h-23.3v13.54h20.14v6.73h-.01Z" fill="url(#linear-gradient-10)"/>
              <path d="M573.34,701.12h-18.99l-3.97,11.41h-8.86l18.52-49.02h7.64l18.55,49.02h-8.89l-4.01-11.41h0ZM556.73,694.26h14.21l-7.1-20.34-7.1,20.34h-.01Z" fill="url(#linear-gradient-11)"/>
              <path d="M609.8,693.67h-9.5v18.86h-8.52v-49.02h17.24c5.66,0,10.02,1.27,13.1,3.81,3.08,2.54,4.61,6.21,4.61,11.02,0,3.28-.79,6.03-2.37,8.24-1.58,2.21-3.79,3.91-6.62,5.11l11.01,20.42v.44h-9.12l-9.83-18.86v-.02h0ZM600.3,686.8h8.75c2.87,0,5.12-.72,6.73-2.17,1.62-1.45,2.42-3.43,2.42-5.94s-.75-4.66-2.24-6.09c-1.49-1.44-3.72-2.18-6.68-2.22h-8.99v16.43h.01Z" fill="url(#linear-gradient-12)"/>
              <path d="M660.45,699.91c0-2.15-.76-3.82-2.27-4.98-1.52-1.17-4.25-2.35-8.2-3.54s-7.09-2.51-9.43-3.97c-4.47-2.81-6.7-6.46-6.7-10.98,0-3.95,1.61-7.21,4.83-9.76,3.22-2.56,7.4-3.84,12.54-3.84,3.41,0,6.45.63,9.12,1.89s4.77,3.05,6.3,5.37c1.53,2.32,2.29,4.9,2.29,7.73h-8.49c0-2.56-.8-4.56-2.41-6.01s-3.9-2.17-6.89-2.17c-2.78,0-4.94.6-6.48,1.78-1.54,1.19-2.31,2.85-2.31,4.98,0,1.8.83,3.29,2.49,4.5,1.66,1.2,4.4,2.37,8.22,3.5,3.82,1.13,6.88,2.42,9.19,3.87s4.01,3.11,5.08,4.98c1.08,1.87,1.62,4.07,1.62,6.58,0,4.09-1.57,7.33-4.7,9.75-3.13,2.41-7.38,3.62-12.74,3.62-3.55,0-6.81-.66-9.78-1.97-2.97-1.31-5.29-3.13-6.94-5.44s-2.47-5.01-2.47-8.08h8.52c0,2.78.92,4.94,2.76,6.46,1.84,1.53,4.48,2.29,7.91,2.29,2.96,0,5.19-.6,6.68-1.8s2.24-2.79,2.24-4.76h.02Z" fill="url(#linear-gradient-13)"/>
            </g>
            <g>
              <polygon points="815.51 799.82 773.6 799.82 773.6 757.91 815.51 799.82" fill="url(#linear-gradient-14)"/>
              <g>
                <path d="M925.02,617.97c-1.23,6.49-2.65,12.93-4.28,19.34,4.63-6.44,13.57-13.57,30.49-13.97,0,0-3.62,25.64-33.33,24.45-2.03,6.97-4.29,13.88-6.78,20.74,5.34-5.88,15.05-12,32-10.4,0,0-6.57,24.98-35.82,20.41-1.64,4.08-3.36,8.14-5.17,12.18-.95,2.11-1.92,4.2-2.91,6.29,5.77-5.3,15.61-10.23,31.59-7.9,0,0-7.84,24.63-36.87,18.56-3.15,6.1-6.49,12.11-10.02,18.01,6.25-4.76,16.59-8.81,32.43-4.85,0,0-10.28,23.75-38.58,14.75-3.44,5.33-7.04,10.57-10.79,15.72,6.69-4,17.17-6.78,32.15-1.57,0,0-2.32,4.27-7.19,8.18h30.13l-59.31,44.33,59.31,44.94h-109.6v45.04h-490.09v-45.04h-109.59l59.3-44.94-59.3-44.33h30.12c-4.87-3.91-7.19-8.18-7.19-8.18,14.98-5.21,25.47-2.43,32.16,1.57-3.76-5.15-7.36-10.39-10.79-15.72-28.3,9-38.58-14.75-38.58-14.75,15.84-3.96,26.18.09,32.42,4.85-3.53-5.9-6.87-11.91-10.02-18.01-29.02,6.07-36.87-18.56-36.87-18.56,15.99-2.33,25.82,2.6,31.59,7.9-.99-2.09-1.95-4.18-2.9-6.29-1.81-4.04-3.54-8.1-5.17-12.18-29.25,4.57-35.83-20.41-35.83-20.41,16.95-1.6,26.67,4.52,32,10.4-2.49-6.86-4.75-13.77-6.78-20.74-29.7,1.19-33.33-24.45-33.33-24.45,16.93.4,25.86,7.53,30.49,13.97-1.63-6.41-3.05-12.85-4.28-19.34-29.97-1.83-30.83-27.9-30.83-27.9,17.13,2.25,25.23,10.58,29.05,17.57-1.13-7.22-2.01-14.49-2.64-21.79-29.05-4.68-27.68-30.36-27.68-30.36,15.96,3.52,23.41,11.76,26.88,18.81-.3-5.68-.44-11.38-.44-17.11,0-1.41,0-2.81.03-4.21h0c-28.7-7.22-25.02-32.77-25.02-32.77,16.07,5.09,22.66,14.37,25.33,21.83.31-6.77.83-13.5,1.55-20.2-28.23-9.53-22.38-34.81-22.38-34.81,16.17,6.66,21.8,16.97,23.62,24.75,1.05-7.48,2.35-14.9,3.92-22.27-26.98-12.77-18.22-37.21-18.22-37.21,15.09,8.39,19.56,19.11,20.55,27.02,1.7-6.92,3.64-13.79,5.8-20.6h0c-25.26-15.47-14.09-38.76-14.09-38.76,13.7,9.58,17.27,20.31,17.64,28.22,2.37-6.68,4.96-13.3,7.79-19.87-23.37-18.45-9.39-40.29-9.39-40.29,12.29,11.07,14.61,22.03,14.08,29.9,2.85-6.08,5.89-12.07,9.12-17.96-21.68-20.23-6.05-40.82-6.05-40.82,11.39,12.04,12.81,23.17,11.64,30.98,3.52-5.98,7.24-11.84,11.15-17.6-19.58-22.02-2.26-41.06-2.26-41.06,10.15,12.86,10.68,23.97,8.89,31.63,3.93-5.4,8.04-10.7,12.32-15.89-16.99-24.87,3.15-41.53,3.15-41.53,8.34,14.29,7.19,25.46,4.28,32.79,4.58-5.23,9.35-10.33,14.29-15.31-15.28-25.52,5.51-40.97,5.51-40.97,7.64,14.83,5.83,25.98,2.48,33.14.23-.22.47-.44.7-.66,4.74-4.48,9.59-8.81,14.55-13.01-12.81-26.83,9.33-40.26,9.33-40.26,6.17,15.35,3.42,26.22-.53,33.05,5.52-4.39,11.16-8.6,16.92-12.66-9.91-28.17,13.64-39.14,13.64-39.14,4.41,15.78.6,26.24-4.01,32.61,6.53-4.28,13.21-8.36,20.03-12.22,2.1-6.16,9.33-18.9,33.03-16.59,1.4.13,2.85.32,4.36.56,0,0-.11.73-.49,1.9h-.01c-1.71,5.16-8.76,18.97-35.03,17.5h0c-7.38,4.2-14.59,8.64-21.61,13.31,7.89-1.4,19.82-.33,32.39,12.41,0,0-20.86,14.75-40.25-7.03-6.16,4.33-12.17,8.85-18.01,13.53,7.69-2.24,19.63-2.43,33.47,8.81,0,0-19.18,17-40.89-2.69-5.49,4.65-10.83,9.45-16.01,14.42,7.46-2.91,19.27-4.15,34.01,5.69,0,0-17.5,18.73-40.97,1.15-5.24,5.3-10.3,10.75-15.17,16.36,7.3-3.27,19.01-5.11,34.23,3.93,0,0-16.36,19.44-40.52,3.52-4.66,5.67-9.13,11.48-13.39,17.42,6.7-4.4,18.18-8.15,34.86-1.19,0,0-13.68,21.87-40.24,8.88-4.14,6.11-8.08,12.35-11.8,18.72,6.33-4.91,17.37-9.5,34.41-4.12,0,0-11.64,22.93-39.14,12.48-3.49,6.35-6.76,12.8-9.81,19.37,5.9-5.42,16.55-10.97,34.07-6.94,0,0-9.74,23.74-37.93,15.59-2.96,6.87-5.69,13.85-8.17,20.94,5.21-6.08,15.1-12.83,32.91-10.98,0,0-6.81,24.85-35.94,20.07-2.13,6.71-4.05,13.52-5.74,20.39,4.68-6.45,13.81-13.74,31.19-13.73,0,0-4.19,25.3-33.47,23.68-1.51,7.12-2.79,14.32-3.82,21.59,3.94-6.92,12.16-15.08,29.27-17.07,0,0-1.22,25.66-30.57,27.4h0c-.76,7.07-1.3,14.19-1.6,21.37,3.14-7.38,10.55-16.81,28.14-20.37,0,0,.94,25.81-28.39,29.91-.02,1.32-.03,2.65-.03,3.97,0,6.64.2,13.24.6,19.78,2.28-7.69,8.68-18.23,26.41-23.52,0,0,3.27,25.71-25.74,32.37.65,7.27,1.53,14.47,2.67,21.59,1.96-7.73,7.76-17.89,23.96-24.29,0,0,5.39,24.96-22.23,34.26,1.29,6.77,2.79,13.45,4.5,20.07,1.02-7.93,5.6-18.88,21.27-27.11,0,0,8.09,24.39-18.68,36.56,2.07,7.13,4.38,14.16,6.93,21.09.12-8,3.43-19.33,17.95-29.28,0,0,10.92,23.35-14.37,38.57,2.84,7.05,5.91,14,9.24,20.83-.54-8.01,1.82-20.01,16.4-31.12,0,0,12.06,22.71-12.34,39.19,3.46,6.66,7.15,13.2,11.06,19.61-1.24-7.92.06-19.93,13.25-32.27,0,0,14.25,21.36-8.27,40.18,4.02,6.22,8.26,12.3,12.69,18.24-2.11-7.76-2.19-20.09,10.15-33.9,0,0,15.65,19.41-3.77,39.87h11.19c1.09-5.26,3.61-11.16,8.4-17.54,0,0,6.67,6.97,7.47,17.54h54.66l-41.92,41.91h496.17l-41.91-41.91h54.66c.8-10.57,7.46-17.54,7.46-17.54,4.79,6.37,7.31,12.28,8.41,17.54h11.19c-19.42-20.46-3.77-39.87-3.77-39.87,12.33,13.81,12.25,26.14,10.14,33.9,4.44-5.94,8.67-12.02,12.69-18.24-22.51-18.82-8.27-40.18-8.27-40.18,13.2,12.34,14.5,24.35,13.25,32.27,3.91-6.41,7.6-12.95,11.06-19.61-24.39-16.48-12.33-39.19-12.33-39.19,14.58,11.11,16.93,23.11,16.39,31.12,3.33-6.83,6.41-13.78,9.25-20.83-25.3-15.22-14.38-38.57-14.38-38.57,14.52,9.95,17.83,21.28,17.95,29.28,2.55-6.93,4.86-13.96,6.93-21.09-26.76-12.17-18.67-36.56-18.67-36.56,15.67,8.23,20.24,19.18,21.26,27.11,1.71-6.62,3.22-13.3,4.5-20.07-27.61-9.3-22.22-34.26-22.22-34.26,16.2,6.4,22,16.56,23.96,24.29,1.13-7.12,2.02-14.32,2.67-21.59-29.02-6.66-25.75-32.37-25.75-32.37,17.73,5.29,24.14,15.83,26.41,23.52.4-6.54.6-13.14.6-19.78,0-1.32,0-2.65-.02-3.97-29.33-4.1-28.39-29.91-28.39-29.91,17.58,3.56,25,12.99,28.13,20.37-.3-7.18-.84-14.3-1.6-21.36h0c-29.34-1.75-30.56-27.41-30.56-27.41,17.1,1.99,25.33,10.15,29.26,17.07-1.03-7.27-2.3-14.47-3.82-21.59-29.27,1.62-33.47-23.68-33.47-23.68,17.38-.01,26.52,7.28,31.19,13.73-1.69-6.87-3.6-13.68-5.73-20.39-29.14,4.78-35.94-20.07-35.94-20.07,17.8-1.85,27.7,4.9,32.9,10.98-2.48-7.09-5.2-14.07-8.16-20.94-28.2,8.15-37.94-15.59-37.94-15.59,17.52-4.03,28.18,1.52,34.07,6.94-3.05-6.57-6.32-13.02-9.8-19.37-27.51,10.45-39.14-12.48-39.14-12.48,17.04-5.38,28.07-.79,34.4,4.12-3.71-6.37-7.66-12.61-11.8-18.72-26.55,12.99-40.23-8.88-40.23-8.88,16.67-6.96,28.15-3.21,34.86,1.19-4.27-5.94-8.73-11.75-13.4-17.42-24.16,15.92-40.51-3.52-40.51-3.52,15.21-9.04,26.93-7.2,34.22-3.93-4.87-5.61-9.93-11.06-15.17-16.36-23.46,17.58-40.97-1.15-40.97-1.15,14.75-9.84,26.56-8.6,34.01-5.69-5.17-4.97-10.52-9.77-16.01-14.42-21.7,19.69-40.89,2.69-40.89,2.69,13.85-11.24,25.79-11.05,33.48-8.81-5.85-4.68-11.86-9.2-18.01-13.53-19.4,21.78-40.26,7.03-40.26,7.03,12.58-12.74,24.5-13.81,32.39-12.41-7.02-4.67-14.22-9.11-21.61-13.31-1.32.07-2.58.11-3.8.11-23.16,0-29.62-12.71-31.23-17.61h-.01c-.39-1.17-.5-1.9-.5-1.9,1.52-.24,2.97-.43,4.37-.56,23.69-2.31,30.93,10.43,33.02,16.59,6.82,3.86,13.5,7.94,20.04,12.22-4.62-6.37-8.43-16.83-4.02-32.61,0,0,23.56,10.97,13.64,39.14,5.76,4.06,11.41,8.27,16.93,12.66-3.95-6.83-6.7-17.7-.54-33.05,0,0,22.15,13.43,9.33,40.26,4.97,4.2,9.81,8.53,14.55,13.01.24.22.47.44.7.66-3.35-7.16-5.16-18.31,2.49-33.14,0,0,20.78,15.45,5.51,40.97,4.93,4.98,9.7,10.08,14.29,15.31-2.92-7.33-4.06-18.5,4.28-32.79,0,0,20.13,16.66,3.15,41.53,4.28,5.19,8.38,10.49,12.31,15.89-1.79-7.66-1.26-18.77,8.89-31.63,0,0,17.33,19.04-2.25,41.06,3.9,5.76,7.62,11.62,11.15,17.6-1.18-7.81.25-18.94,11.64-30.98,0,0,15.63,20.59-6.06,40.82,3.23,5.89,6.27,11.88,9.12,17.96-.53-7.87,1.79-18.83,14.09-29.9,0,0,13.98,21.84-9.4,40.29,2.83,6.57,5.43,13.19,7.8,19.87.37-7.91,3.94-18.64,17.64-28.22,0,0,11.16,23.29-14.1,38.75h0c2.17,6.82,4.11,13.69,5.8,20.61.99-7.91,5.47-18.63,20.56-27.02,0,0,8.75,24.44-18.22,37.21,1.56,7.37,2.87,14.79,3.91,22.27,1.83-7.78,7.45-18.09,23.63-24.75,0,0,5.84,25.28-22.39,34.81.73,6.7,1.25,13.43,1.55,20.2,2.68-7.46,9.27-16.74,25.33-21.83,0,0,3.68,25.55-25.01,32.76h0c.02,1.41.03,2.81.03,4.22,0,5.73-.15,11.43-.45,17.11,3.48-7.05,10.93-15.29,26.89-18.81,0,0,1.36,25.68-27.69,30.36-.63,7.3-1.51,14.57-2.64,21.79,3.82-6.99,11.92-15.32,29.05-17.57,0,0-.85,26.07-30.83,27.9h-.01Z" fill="url(#linear-gradient-15)"/>
                <polygon points="361.26 757.91 361.26 799.82 319.34 799.82 361.26 757.91" fill="url(#linear-gradient-16)"/>
              </g>
            </g>
            <g id="script_excellence">
              <path id="_x30_" d="M408.42,879.26v-60.79h26.05v8.68h-16.5v16.07h13.11v8.68h-13.11v18.67h16.5v8.68h-26.05Z" vector-effect="non-scaling-stroke" fill-rule="evenodd" stroke="#000" stroke-linecap="round" stroke-width=".71"/>
              <path id="_x31_" d="M437.51,879.26l11.03-31.09-10.51-29.7h10.07l6.43,19.63h.17l6.6-19.63h9.03l-10.51,29.7,11.03,31.09h-10.07l-6.95-21.19h-.17l-7.12,21.19h-9.03,0Z" vector-effect="non-scaling-stroke" fill-rule="evenodd" stroke="#000" stroke-linecap="round" stroke-width=".71"/>
              <path id="_x32_" d="M473.38,865.19v-32.65c0-1.45.12-2.9.39-4.33.33-1.69.87-3.2,1.62-4.52.45-.79.98-1.52,1.59-2.19,1.51-1.62,3.46-2.77,5.6-3.31,1.25-.34,2.62-.54,4.12-.58.25,0,.5-.01.74-.01,4.57,0,8.06,1.3,10.46,3.91,1.33,1.47,2.3,3.23,2.84,5.15.38,1.3.62,2.73.72,4.28.03.53.05,1.07.05,1.6v6.43h-9.03v-7.03c0-.71-.06-1.42-.21-2.11-.44-1.99-1.6-3.14-3.46-3.45-.37-.06-.74-.09-1.11-.09-.69-.01-1.38.1-2.03.33-1.83.69-2.74,2.46-2.74,5.31v33.96c0,3.71,1.59,5.56,4.78,5.56s4.78-1.85,4.78-5.56v-9.29h9.03v8.6c0,1.45-.12,2.9-.39,4.33-.33,1.69-.87,3.2-1.62,4.52-.45.79-.98,1.52-1.59,2.19-1.51,1.62-3.46,2.77-5.6,3.31-1.25.34-2.62.54-4.12.58-.25,0-.5.01-.74.01-4.57,0-8.06-1.3-10.46-3.91-1.33-1.47-2.3-3.23-2.84-5.15-.38-1.3-.62-2.73-.72-4.28-.03-.53-.05-1.06-.05-1.6h-.01Z" vector-effect="non-scaling-stroke" fill-rule="evenodd" stroke="#000" stroke-linecap="round" stroke-width=".71"/>
              <path id="_x33_" d="M507.25,879.26v-60.79h26.05v8.68h-16.5v16.07h13.11v8.68h-13.11v18.67h16.5v8.68h-26.05Z" vector-effect="non-scaling-stroke" fill-rule="evenodd" stroke="#000" stroke-linecap="round" stroke-width=".71"/>
              <path id="_x34_" d="M538.78,879.26v-60.79h9.55v52.11h15.72v8.68h-25.27,0Z" vector-effect="non-scaling-stroke" fill-rule="evenodd" stroke="#000" stroke-linecap="round" stroke-width=".71"/>
              <path id="_x35_" d="M568.65,879.26v-60.79h9.55v52.11h15.72v8.68h-25.27,0Z" vector-effect="non-scaling-stroke" fill-rule="evenodd" stroke="#000" stroke-linecap="round" stroke-width=".71"/>
              <path id="_x36_" d="M598.53,879.26v-60.79h26.05v8.68h-16.5v16.07h13.11v8.68h-13.11v18.67h16.5v8.68h-26.05Z" vector-effect="non-scaling-stroke" fill-rule="evenodd" stroke="#000" stroke-linecap="round" stroke-width=".71"/>
              <path id="_x37_" d="M630.05,879.26v-60.79h11.98l9.29,36.39h.17v-36.39h8.51v60.79h-9.81l-11.46-44.38h-.17v44.38h-8.51,0Z" vector-effect="non-scaling-stroke" fill-rule="evenodd" stroke="#000" stroke-linecap="round" stroke-width=".71"/>
              <path id="_x38_" d="M666.53,865.19v-32.65c0-1.45.12-2.9.39-4.33.33-1.69.87-3.2,1.62-4.52.45-.79.98-1.52,1.59-2.19,1.51-1.62,3.46-2.77,5.6-3.31,1.25-.34,2.62-.54,4.12-.58.25,0,.5-.01.74-.01,4.57,0,8.06,1.3,10.46,3.91,1.33,1.47,2.3,3.23,2.84,5.15.38,1.3.62,2.73.72,4.28.03.53.05,1.07.05,1.6v6.43h-9.03v-7.03c0-.71-.06-1.42-.21-2.11-.44-1.99-1.6-3.14-3.46-3.45-.37-.06-.74-.09-1.11-.09-.69-.01-1.38.1-2.03.33-1.83.69-2.74,2.46-2.74,5.31v33.96c0,3.71,1.59,5.56,4.78,5.56s4.78-1.85,4.78-5.56v-9.29h9.03v8.6c0,1.45-.12,2.9-.39,4.33-.33,1.69-.87,3.2-1.62,4.52-.45.79-.98,1.52-1.59,2.19-1.51,1.62-3.46,2.77-5.6,3.31-1.25.34-2.62.54-4.12.58-.25,0-.5.01-.74.01-4.57,0-8.06-1.3-10.46-3.91-1.33-1.47-2.3-3.23-2.84-5.15-.38-1.3-.62-2.73-.72-4.28-.03-.53-.05-1.06-.05-1.6h-.01Z" vector-effect="non-scaling-stroke" fill-rule="evenodd" stroke="#000" stroke-linecap="round" stroke-width=".71"/>
              <path id="_x39_" d="M700.4,879.26v-60.79h26.05v8.68h-16.5v16.07h13.11v8.68h-13.11v18.67h16.5v8.68h-26.05Z" vector-effect="non-scaling-stroke" fill-rule="evenodd" stroke="#000" stroke-linecap="round" stroke-width=".71"/>
            </g>
            <g id="script_of">
              <path id="_x30_-2" data-name="_x30_" d="M546.4,767.23c.79.26,1.63.38,2.46.37,2.1,0,4.11-.59,6.02-1.76.54-.33,1.06-.69,1.56-1.08,1.33-1.03,2.53-2.22,3.58-3.55,1.52-1.91,2.72-4,3.6-6.28.2-.52.39-1.06.55-1.59.51-1.66.77-3.39.77-5.12,0-1.66-.42-3.18-1.25-4.55-.52-.89-1.36-1.55-2.36-1.84-.52-.15-1.06-.22-1.61-.22-1.02,0-2.03.15-3.01.44-1.07.33-2.1.79-3.05,1.39-1.98,1.22-3.78,2.8-5.4,4.74-1.62,1.93-2.91,4.03-3.89,6.28-.38.87-.7,1.77-.95,2.7-.34,1.23-.51,2.49-.52,3.76,0,.13,0,.26,0,.39.09,3.18,1.25,5.15,3.48,5.92ZM548.78,765.25c.05,0,.1,0,.15,0,.15,0,.25-.02.31-.04.02,0,.04-.02.05-.03,1.91-.25,3.67-.93,5.29-2.06,1.62-1.13,3.02-2.53,4.22-4.22,1.2-1.69,2.12-3.51,2.75-5.47.48-1.46.79-2.98.91-4.52.03-.43.05-.85.05-1.28,0-.36-.04-.72-.11-1.07-.12-.53-.34-.99-.66-1.38-.06-.07-.12-.13-.18-.19-.57-.57-1.34-.91-2.15-.95-.09,0-.18,0-.27,0-.7,0-1.4.14-2.05.39-.53.2-1.08.47-1.64.81-.28.18-.56.36-.82.56-1.03.77-1.99,1.63-2.87,2.58-.57.61-1.1,1.24-1.61,1.9-1.39,1.81-2.53,3.71-3.41,5.69-.88,1.98-1.32,3.76-1.32,5.32,0,2.31.86,3.61,2.58,3.9.26.04.53.06.79.06Z" vector-effect="non-scaling-stroke" fill="#fff" fill-rule="evenodd" stroke="#000" stroke-linecap="round" stroke-width=".71"/>
              <path id="_x31_-2" data-name="_x31_" d="M587.11,735.96l-6.75,6.97-2.35,3.74c-.22.34-.43.68-.64,1.02-.46.77-.98,1.69-1.55,2.75-.04.08-.08.15-.12.23-.36.68-.72,1.35-1.09,2.03-.64,1.2-1.34,2.52-2.11,3.95-.13.25-.26.5-.39.75-.36.69-.77,1.48-1.24,2.39-.08.15-.16.3-.24.46-.3.59-.6,1.18-.9,1.77-.26.52-.54,1.07-.82,1.64-.3.6-.59,1.2-.89,1.8.21.03.42.07.63.12.15.04.29.08.44.14.32.12.62.26.92.4,4.96-1.55,9.65-3.86,13.89-6.86,1.78-1.24,3.49-2.58,5.12-4.01.34-.24.64-.37.88-.37.16,0,.32.01.47.05.52.12.78.47.78,1.05,0,.13-.03.26-.08.39-.03.07-.06.14-.1.2-.12.19-.24.37-.38.55,0,.01-.02.02-.03.04-.73.78-1.79,1.69-3.16,2.72-.55.41-1.11.81-1.69,1.19-1.02.68-2.17,1.38-3.45,2.12-1.25.69-2.51,1.37-3.78,2.02-.44.22-.88.44-1.32.66-.98.49-1.99.94-3,1.36-.57.23-1.15.46-1.73.66.93,1.15,1.56,2.51,1.83,3.97.15.8.23,1.61.22,2.42-.01,2.1-.35,4.18-1,6.17-.51,1.62-1.23,3.27-2.14,4.95,0,.01-.01.03-.02.04-.55,1.02-1.18,2-1.88,2.92-2,2.56-4.23,3.84-6.71,3.84-1.57,0-2.68-.53-3.34-1.58-.3-.49-.53-1.03-.68-1.58-.13-.48-.22-1-.27-1.57-.03-.36-.04-.71-.04-1.07,0-4.01,1.88-10.2,5.65-18.57-.2-.2-.29-.44-.29-.73,0-.19.07-.38.17-.53.2-.31.59-.62,1.15-.94,2.42-4.89,4.68-9.26,6.78-13.1.15-.27.3-.54.45-.81,2.23-4.04,4.25-7.48,6.06-10.31,6.07-9.3,11.53-15.73,16.37-19.31.64-.49,1.25-.88,1.84-1.17.59-.29,1.17-.44,1.76-.44.14,0,.29.01.43.04.5.1.75.41.75.91,0,.3-.1.61-.31.93-.03.05-.06.09-.09.13-.27.37-.72.94-1.36,1.73-.29.33-.58.66-.88.99-.26.29-.53.6-.81.91-.29.33-.59.66-.88.99-.98,1.1-1.99,2.24-3.05,3.41-1.05,1.17-2.02,2.24-2.9,3.19-.67.73-1.25,1.34-1.72,1.83-.13.14-.27.28-.41.41ZM566.33,768.92v.07c-.83,1.85-1.63,3.71-2.4,5.59-2.17,5.34-3.41,9.36-3.7,12.05-.04.38-.07.77-.07,1.15,0,.21.02.42.06.63.05.24.12.45.23.64.08.14.18.27.3.38.29.27.65.44,1.03.51.17.03.34.04.51.04.93,0,1.85-.26,2.65-.72.51-.29.99-.64,1.42-1.04.8-.73,1.51-1.56,2.12-2.45.45-.67.86-1.37,1.22-2.1.63-1.22,1.17-2.67,1.62-4.33.04-.14.07-.27.11-.41.46-1.84.7-3.44.7-4.81,0-2.74-.83-4.58-2.5-5.51-.64.1-1.22.18-1.76.26s-1.05.09-1.54.04Z" vector-effect="non-scaling-stroke" fill="#fff" fill-rule="evenodd" stroke="#000" stroke-linecap="round" stroke-width=".71"/>
            </g>
          </g>
        </g>
      </g>
    </g>
  </g>
</svg>